<svg width="537" height="492" viewBox="0 0 537 492" fill="none" xmlns="http://www.w3.org/2000/svg">
<path d="M79.3436 378.149C77.7179 377.656 75.953 378.038 74.6774 379.16C73.4365 380.277 72.3982 381.601 71.6084 383.072C69.4009 386.673 67.4258 389.998 64.9375 393.411C63.6367 395.196 63.6664 396.171 64.3609 396.797C65.8638 398.134 67.4423 399.384 69.0888 400.54C71.0764 401.849 73.5 397.791 75.9879 394.895C76.9642 393.759 79.0449 394.538 79.6864 395.61C79.9752 396.091 80.1424 396.635 80.1737 397.195C80.1626 398.593 79.6281 399.937 78.6755 400.962C77.3627 402.517 75.4095 403.974 76.3407 406.277C76.6672 407.028 77.2032 407.668 77.8845 408.122C80.8244 410.182 83.9345 411.987 87.1809 413.518C88.2008 414.153 89.4281 414.364 90.6014 414.107C91.4371 413.716 92.1263 413.068 92.5685 412.259C93.6808 410.853 94.2243 409.081 94.0912 407.294C93.6111 404.498 90.6088 403.051 88.3936 401.278C87.3296 400.558 86.5895 399.451 86.3314 398.192C86.2866 397.497 86.3952 396.8 86.6495 396.151C87.3859 393.999 88.719 392.074 89.3094 389.877C89.8999 387.681 89.4756 384.924 87.489 383.816L79.3436 378.149Z" fill="black"/>
<path d="M116.862 322.852C102.117 344.52 86.4592 365.935 81.0331 373.938C79.2676 376.532 77.8938 379.51 80.6214 381.844C83.3576 384.166 85.7723 384.997 88.7774 382.556C98.501 372.897 108.202 362.366 119.352 349.863" fill="white"/>
<path d="M85.2071 384.513C83.3516 384.355 81.6121 383.544 80.298 382.225C77.2115 379.585 78.8487 376.259 80.6197 373.656C82.7203 370.559 86.3131 365.509 90.8614 359.115C97.8439 349.301 107.406 335.858 116.448 322.57L117.275 323.133C108.228 336.43 98.6612 349.877 91.6764 359.695C87.1315 366.083 83.5416 371.13 81.4474 374.218C79.1334 377.618 78.984 379.785 80.9469 381.464C83.9337 383.999 85.9718 384.19 88.462 382.169C97.1417 373.542 106.279 363.771 118.979 349.529L119.725 350.195C107.011 364.452 97.8614 374.236 89.13 382.911C88.0517 383.89 86.6625 384.457 85.2071 384.513Z" fill="black"/>
<path d="M457.9 320.829C462.437 408.401 393.857 491.354 287.374 491.354C193.211 491.332 116.89 414.991 116.89 320.829C116.89 226.666 193.211 150.326 287.374 150.303C287.374 150.303 448.872 146.587 457.9 320.829Z" fill="white"/>
<path fill-rule="evenodd" clip-rule="evenodd" d="M116.349 320.826C116.349 415.129 193.07 491.851 287.375 491.851C337.244 491.851 382.308 473.315 414.267 439.659C444.581 407.721 460.524 364.782 458.399 320.8C456.335 280.963 446.06 247.181 427.86 220.392C413.293 198.95 393.65 181.92 369.476 169.775C328.684 149.281 288.444 149.787 287.393 149.8L287.375 149.8C193.07 149.8 116.349 226.522 116.349 320.826ZM287.386 150.8C287.413 150.799 287.619 150.796 287.992 150.796C293.195 150.796 330.882 151.494 369.062 170.686C393.074 182.757 412.583 199.676 427.046 220.974C445.134 247.607 455.346 281.21 457.401 320.851C459.512 364.559 443.667 407.232 413.542 438.97C381.774 472.426 336.967 490.851 287.375 490.851C193.622 490.851 117.349 414.578 117.349 320.826C117.349 227.073 193.622 150.8 287.386 150.8Z" fill="black"/>
<path d="M178.765 373.916C172.643 370.899 165.478 371.983 159.156 369.406C152.86 366.722 147.422 362.362 143.432 356.801C134.385 344.511 133.659 328.899 137.742 314.673C138.767 311.676 139.097 308.485 138.708 305.341C138.08 301.514 136.3 297.983 135.659 294.156C134.253 285.753 137.152 277.442 140.508 269.857C143.57 262.741 147.341 255.951 151.764 249.59C154.359 245.947 159.302 240.171 163.253 245.614C165.352 248.506 165.504 252.32 167.546 255.261C170.876 260.057 179.943 262.818 178.877 269.931C178.089 275.19 171.815 271.981 168.687 271.34C166.383 270.861 163.987 271.141 161.855 272.138C157.009 274.412 154.98 279.849 156.048 284.928C156.938 289.162 160.841 294.723 165.755 292.153C171.337 289.235 172.065 277.602 180.342 281.215C183.839 282.742 186.507 285.88 188.852 288.794C191.982 292.684 194.892 297.031 190.888 301.62C188.75 304.07 185.698 305.582 183.296 307.758C181.08 309.757 179.187 312.087 177.686 314.666C174.659 319.878 173.591 326 174.675 331.929C175.22 334.954 176.356 337.841 178.019 340.425C179.783 343.129 183.321 345.74 182.963 349.275C182.904 350.022 182.543 350.712 181.963 351.185C181.382 351.659 180.633 351.874 179.89 351.781C178.896 351.653 177.913 351.445 176.953 351.16C175.313 350.762 173.631 350.56 171.944 350.558C169.473 350.515 167.123 351.621 165.581 353.552C162.515 357.638 165.392 362.21 169.801 363.449C173.17 364.395 176.722 363.388 180.12 364.145C184.255 365.065 188.89 369.285 188.517 373.841C188.527 375.246 187.659 376.508 186.342 376.999C184.935 377.598 183.906 377.174 182.611 376.432C181.277 375.668 180.126 374.642 178.765 373.916C178.197 373.613 177.691 374.476 178.26 374.78C180.591 376.023 183.081 378.888 186.003 378.338C188.02 377.83 189.463 376.057 189.549 373.979C190.04 367.915 183.55 363.196 178.096 362.857C174.165 362.613 169.406 363.731 166.44 360.346C164.729 358.237 165.01 355.149 167.073 353.384C169.294 351.261 172.526 351.37 175.35 351.857C177.559 352.237 180.956 353.918 182.873 352.004C184.336 350.544 184.215 348.102 183.46 346.341C182.059 343.072 179.072 340.755 177.53 337.516C175.83 333.911 175.055 329.937 175.277 325.957C175.712 317.828 180.461 310.835 186.904 306.148C189.46 304.288 192.198 302.481 193.415 299.418C194.586 296.47 193.678 293.788 191.963 291.29C188.818 286.71 183.355 279.04 176.959 279.521C169.766 280.061 170.171 291.871 163.159 291.703C158.166 291.583 156.307 284.484 156.897 280.479C157.439 276.407 160.498 273.123 164.521 272.292C168.362 271.507 171.458 273.938 175.17 273.976C177.289 274.117 179.215 272.747 179.775 270.698C181.365 264.648 174.974 260.8 171.163 257.606C169.701 256.454 168.486 255.02 167.591 253.387C166.582 251.417 166.182 249.203 165.295 247.183C164.355 245.042 162.666 242.65 160.189 242.233C157.032 241.701 154.329 244.749 152.539 246.922C150.227 249.874 148.151 253.005 146.332 256.285C142.108 263.238 138.696 270.654 136.165 278.387C134.923 282.193 134.29 286.171 134.289 290.174C134.36 294.24 135.594 297.922 136.779 301.764C138.117 306.023 138.073 310.595 136.655 314.828C135.581 318.35 134.841 321.965 134.445 325.625C133.684 333.147 134.691 340.743 137.386 347.807C142.092 359.889 152.785 370.373 165.95 372.286C170.142 372.895 174.379 372.867 178.26 374.78C178.835 375.063 179.342 374.201 178.765 373.916V373.916Z" fill="black"/>
<path fill-rule="evenodd" clip-rule="evenodd" d="M282.332 470.332C285.376 471.806 290.791 472.528 297.653 472.528C322.462 472.528 366.177 463.098 385.085 445.73C386.588 444.459 387.829 442.907 388.737 441.161C389.736 439.352 389.432 437.103 387.989 435.624C384.115 431.413 383.906 428.775 384.902 424.452C385.274 423.06 385.79 421.71 386.441 420.425C386.902 419.472 387.313 418.495 387.674 417.499C389.241 412.934 388.212 407.604 384.92 403.241C381.956 399.044 377.106 396.586 371.969 396.678C368.689 396.85 364.889 398.599 364.294 402.034C363.811 404.816 365.6 407.048 367.332 409.207C368.68 410.888 370.073 412.627 370.371 414.596C370.557 416.064 370.136 417.545 369.205 418.696C368.138 420.107 366.554 421.036 364.802 421.278C361.42 421.469 358.227 419.711 356.579 416.752C356.119 415.925 355.713 415.07 355.361 414.192C354.264 411.173 352.259 408.568 349.621 406.735C348.555 405.866 347.55 404.924 346.614 403.915C345.085 402.023 343.797 399.947 342.78 397.736C341.786 395.606 340.563 393.591 339.132 391.726C337.038 389.244 333.957 387.81 330.71 387.805C328.854 387.814 327.118 388.723 326.055 390.244C323.936 393.313 325.38 396.857 326.775 400.283C327.657 402.171 328.266 404.176 328.585 406.236C328.806 408.617 328.034 411.073 327.287 413.447L327.286 413.45C326.326 416.504 325.334 419.661 326.414 422.743C327.182 424.935 328.842 426.566 330.448 428.144L330.448 428.144C331.382 429.017 332.25 429.958 333.044 430.96C334.306 432.701 334.691 434.929 334.088 436.993C333.785 437.941 333.005 438.66 332.036 438.886C330.55 439.22 329.158 438.371 327.685 437.473L327.684 437.472C326.735 436.832 325.704 436.322 324.619 435.955C322.984 435.609 321.293 435.624 319.664 435.999C318.426 436.256 317.157 436.337 315.896 436.24C313.981 435.965 312.279 434.873 311.231 433.246C309.42 430.441 308.818 427.023 309.561 423.768C310.485 420.534 311.86 417.447 313.647 414.598C314.736 412.743 315.723 410.83 316.605 408.868C320.439 399.886 319.379 389.564 313.8 381.549C308.1 373.703 297.691 369.585 288.494 371.535C287.361 371.775 286.234 372.1 285.144 372.415C283.186 373.076 281.153 373.485 279.093 373.634C277.293 373.621 275.5 373.413 273.745 373.012C271.572 372.483 269.33 372.297 267.1 372.463C261.875 373.121 255.639 378.083 253.806 390.04C253.214 393.904 252.183 397.928 249.024 398.478C247.376 398.76 245.714 397.914 244.057 397.064C237.62 393.765 230.797 391.283 223.746 389.674C219.517 388.71 211.947 387.871 208.761 393.087C205.952 397.689 208.869 403.434 212.22 406.955C213.172 407.955 214.209 408.917 215.212 409.848L215.212 409.848L215.215 409.85C217.768 412.22 220.408 414.669 221.708 417.853C222.373 419.702 222.805 421.627 222.995 423.582C223.168 425.024 223.43 426.453 223.779 427.862C226.548 438.108 237.264 443.417 248.432 447.629L248.483 447.649C255.55 450.313 263.574 453.338 271.702 453.118C275.035 452.945 278.351 452.529 281.623 451.872C288.241 450.713 294.492 449.619 300.167 452.365C302.745 453.613 304.392 455.562 304.572 457.578C304.699 458.925 304.204 460.257 303.229 461.195C301.385 463.089 297.67 464.267 294.194 464.044C293.245 463.985 292.142 463.853 290.974 463.713L290.955 463.711C287.096 463.251 282.73 462.73 280.697 464.414C280.017 464.98 279.61 465.809 279.578 466.693C279.469 468.169 280.395 469.394 282.332 470.332ZM281.336 465.184C282.547 464.451 283.962 464.127 285.372 464.259C287.207 464.304 289.037 464.453 290.854 464.707L290.855 464.707C292.038 464.848 293.155 464.982 294.132 465.042C297.304 465.247 301.561 464.342 303.945 461.892C305.12 460.742 305.716 459.125 305.568 457.488C305.356 455.12 303.5 452.868 300.602 451.464C294.637 448.578 287.932 449.751 281.45 450.887C278.226 451.534 274.96 451.946 271.676 452.118C263.716 452.323 255.806 449.341 248.822 446.708L248.785 446.694C237.866 442.576 227.396 437.413 224.745 427.6C224.406 426.231 224.153 424.843 223.985 423.443C223.783 421.406 223.329 419.401 222.633 417.476C221.251 414.087 218.528 411.561 215.895 409.118L215.893 409.116L215.879 409.103C214.891 408.186 213.871 407.239 212.945 406.266C209.591 402.743 207.261 397.462 209.615 393.609C212.581 388.751 220.328 389.921 223.523 390.649C230.512 392.245 237.275 394.708 243.653 397.981L243.667 397.988C245.334 398.843 247.223 399.811 249.196 399.462C252.979 398.804 254.148 394.407 254.794 390.193C255.888 383.055 259.8 374.39 267.225 373.456C269.351 373.301 271.489 373.483 273.559 373.995C275.385 374.406 277.25 374.621 279.122 374.634C281.266 374.481 283.383 374.058 285.422 373.376C286.495 373.066 287.604 372.746 288.701 372.513C297.527 370.646 307.517 374.601 312.991 382.137C318.367 389.866 319.385 399.818 315.686 408.475C314.818 410.403 313.847 412.283 312.776 414.107C310.939 417.037 309.529 420.214 308.587 423.541C307.785 427.072 308.443 430.778 310.411 433.817C311.617 435.679 313.573 436.925 315.769 437.232C317.124 437.34 318.486 437.258 319.817 436.988C321.303 436.637 322.847 436.613 324.344 436.916C325.341 437.261 326.289 437.735 327.163 438.326L327.163 438.326C328.741 439.289 330.372 440.284 332.255 439.863C333.561 439.573 334.616 438.613 335.026 437.339C335.752 434.957 335.314 432.372 333.845 430.361C333.021 429.317 332.12 428.338 331.148 427.431L331.146 427.429C329.552 425.862 328.048 424.383 327.357 422.412C326.388 419.643 327.288 416.779 328.241 413.747L328.241 413.746C329.018 411.278 329.82 408.725 329.581 406.144C329.257 403.985 328.624 401.884 327.701 399.906C326.346 396.579 325.066 393.437 326.877 390.812C327.772 389.559 329.214 388.813 330.753 388.804C333.687 388.82 336.467 390.12 338.36 392.363C339.744 394.172 340.928 396.126 341.891 398.191C342.942 400.478 344.277 402.624 345.864 404.578C346.831 405.621 347.869 406.596 348.972 407.495C351.491 409.227 353.404 411.706 354.441 414.582C354.808 415.501 355.234 416.395 355.716 417.258C357.549 420.574 361.137 422.529 364.917 422.272C366.938 421.996 368.767 420.928 370 419.303C371.097 417.938 371.588 416.183 371.359 414.447C371.022 412.212 369.543 410.367 368.113 408.582L368.112 408.581C366.446 406.504 364.874 404.542 365.278 402.204C365.758 399.439 369.033 397.833 372.021 397.676C376.826 397.605 381.356 399.913 384.122 403.842C387.213 407.941 388.188 412.924 386.729 417.175C386.378 418.138 385.979 419.082 385.534 420.005C384.855 421.353 384.316 422.768 383.928 424.227C382.895 428.714 383.125 431.814 387.253 436.302C388.416 437.487 388.651 439.3 387.828 440.743C386.974 442.367 385.813 443.811 384.409 444.994C360.498 466.957 296.644 476.157 282.768 469.432C281.237 468.691 280.499 467.794 280.576 466.763C280.59 466.152 280.867 465.577 281.336 465.184Z" fill="black"/>
<path fill-rule="evenodd" clip-rule="evenodd" d="M234.794 463.688C236.697 465.093 239.015 465.822 241.379 465.761H241.38C241.465 465.761 241.549 465.761 241.635 465.759C243.819 465.717 246.375 464.659 246.822 462.435C247.157 460.776 246.229 459.041 244.067 457.279C240.177 454.105 235.727 451.686 230.947 450.149C229.775 449.683 228.503 449.524 227.253 449.687C225.818 449.893 224.708 451.051 224.563 452.493C224.562 454.458 225.879 455.783 226.841 456.75L226.841 456.751C228.603 458.52 233.388 462.582 234.794 463.688ZM235.413 462.903C234.06 461.838 229.255 457.759 227.55 456.046C226.665 455.155 225.562 454.046 225.563 452.493C225.564 451.582 226.521 450.849 227.445 450.668C228.53 450.547 229.627 450.695 230.64 451.1C235.302 452.6 239.641 454.959 243.435 458.054C245.288 459.563 246.097 460.971 245.842 462.238C245.503 463.921 243.414 464.724 241.616 464.759C239.396 464.874 237.205 464.219 235.413 462.903Z" fill="black"/>
<path d="M398.154 324.423C401.57 321.063 407.884 322.027 412.238 322.249C417.111 322.38 421.927 323.336 426.48 325.077C431.149 326.994 436.49 330.254 438.662 335.009C439.988 337.909 439.65 340.794 437.153 342.907C435.51 344.298 433.778 345.322 432.717 347.27C430.626 351.11 431.067 357.368 426.095 358.937C421.407 360.417 416.302 357.277 411.445 358.103C406.257 358.984 402.124 362.439 397.275 364.207C394.201 365.329 390.81 365.439 388.457 362.825C386.423 360.4 385.763 357.108 386.704 354.087C387.756 350.983 389.611 348.214 392.082 346.062C393.706 344.497 395.521 343 396.647 341.008C399.702 335.601 394.154 329.346 398.154 324.423C398.556 323.927 397.853 323.216 397.447 323.716C395.963 325.407 395.315 327.675 395.68 329.896C396.121 333.457 397.704 337.091 395.783 340.503C394.327 343.089 391.718 344.821 389.762 346.993C387.73 349.111 386.28 351.718 385.553 354.561C384.638 358.732 386.331 363.833 390.55 365.504C396.005 367.665 401.87 362.9 406.557 360.758C409.778 359.173 413.414 358.637 416.955 359.224C419.779 359.699 422.783 360.672 425.666 360.073C430.625 359.041 431.308 354.111 432.654 350.045C433.105 348.457 433.936 347.002 435.075 345.807C436.082 344.808 437.371 344.14 438.39 343.152C439.972 341.676 440.727 339.515 440.408 337.374C439.718 332.237 434.998 328.558 430.83 326.12C425.583 323.239 419.744 321.605 413.764 321.342C408.8 320.982 401.381 319.846 397.447 323.716C396.987 324.168 397.695 324.875 398.154 324.423Z" fill="black"/>
<path fill-rule="evenodd" clip-rule="evenodd" d="M203.998 364.772C205.668 366.03 207.712 366.692 209.803 366.651C211.496 366.648 213.168 366.269 214.698 365.543C216.089 364.995 217.22 363.939 217.86 362.588C218.664 360.574 217.678 358.415 216.487 357.066C215.612 356.143 214.639 355.316 213.586 354.603L213.572 354.592C213.115 354.259 212.658 353.925 212.219 353.571C211.695 353.112 211.218 352.601 210.796 352.046C209.762 350.786 208.59 349.359 206.577 349.359C203.801 349.359 202.027 351.567 201.448 355.744C200.967 359.202 200.827 362.27 203.998 364.772ZM202.438 355.881C202.788 353.362 203.79 350.359 206.577 350.359V350.359C208.118 350.359 209.043 351.486 210.023 352.68C210.488 353.288 211.013 353.848 211.592 354.351C212.047 354.718 212.522 355.064 212.996 355.41C213.991 356.081 214.91 356.859 215.737 357.729C216.686 358.803 217.568 360.623 216.931 362.217C216.38 363.33 215.43 364.195 214.27 364.639C210.972 366.205 207.093 365.943 204.618 363.987C202.099 361.999 201.908 359.698 202.438 355.881Z" fill="black"/>
<path d="M109.11 407.648C107.56 406.953 105.761 407.109 104.353 408.061C102.981 409.011 101.783 410.193 100.813 411.552C98.1674 414.844 95.787 417.892 92.8864 420.963C91.37 422.568 91.2759 423.54 91.8855 424.248C93.2068 425.765 94.6143 427.205 96.1011 428.56C97.9069 430.11 100.825 426.392 103.66 423.834C104.772 422.831 106.737 423.868 107.238 425.012C107.463 425.526 107.56 426.086 107.521 426.646C107.332 428.032 106.632 429.297 105.557 430.193C104.058 431.569 101.936 432.767 102.568 435.169C102.797 435.955 103.247 436.659 103.865 437.196C106.521 439.611 109.377 441.795 112.403 443.726C113.334 444.484 114.525 444.849 115.722 444.743C116.6 444.461 117.366 443.906 117.907 443.159C119.188 441.906 119.952 440.217 120.046 438.427C119.924 435.592 117.13 433.777 115.157 431.738C114.193 430.889 113.599 429.696 113.502 428.415C113.546 427.72 113.742 427.042 114.076 426.431C115.079 424.39 116.646 422.649 117.51 420.545C118.374 418.441 118.302 415.652 116.472 414.302L109.11 407.648Z" fill="black"/>
<path d="M258.246 179.391V179.401C258.236 180.581 258.216 181.751 258.206 182.931C255.796 206.951 254.876 233.971 246.146 266.151C244.976 270.471 243.666 274.891 242.186 279.401C237.767 293.282 231.032 306.316 222.266 317.951C214.396 328.501 194.586 347.521 185.216 355.771C156.616 380.971 137.136 398.451 117.906 413.211C114.616 415.251 112.326 414.121 109.916 411.461C107.496 408.801 109.246 406.021 111.316 403.671C120.896 392.821 157.016 355.061 177.006 329.451C184.596 319.731 190.946 310.741 194.436 303.501C199.206 293.641 203.926 278.961 203.576 258.351C203.366 245.581 201.226 230.541 195.936 212.951C190.666 195.391 181.796 177.261 184.086 155.281C185.726 139.551 194.356 122.531 215.226 114.611C215.25 114.609 215.274 114.602 215.296 114.591C216.666 114.071 218.096 113.591 219.576 113.151C225.144 111.332 230.879 110.069 236.696 109.381C242.405 108.605 248.165 108.254 253.926 108.331C253.786 108.491 253.646 108.651 253.516 108.811C252.316 110.267 251.394 111.931 250.796 113.721C248.906 119.311 250.896 127.241 252.366 132.941C253.836 138.651 255.856 144.291 256.116 150.181C256.356 155.451 254.266 161.101 254.186 166.371C254.116 171.221 254.506 175.561 258.086 179.221C258.136 179.281 258.186 179.331 258.246 179.391Z" fill="white"/>
<path d="M258.086 179.221C257.456 184.961 256.946 190.881 256.415 197.021C254.665 217.411 252.705 240.131 245.606 266.201C244.456 270.461 243.165 274.811 241.706 279.251C237.293 293.073 230.586 306.055 221.866 317.651C213.915 328.311 193.856 347.491 184.886 355.401L175.425 363.741C151.736 384.641 134.616 399.751 117.646 412.781C114.915 414.471 112.915 414.031 110.286 411.131C108.546 409.221 108.966 407.091 111.695 404.001C114.156 401.211 118.346 396.671 123.656 390.921C139.146 374.141 162.546 348.781 177.406 329.761C186.185 318.511 191.736 310.241 194.886 303.721C201.296 290.471 204.386 275.401 204.126 258.631C203.925 244.521 201.355 229.245 196.415 212.801C195.286 209.041 194.016 205.331 192.675 201.401C187.816 187.191 182.796 172.501 184.586 155.331C185.596 145.611 191.046 122.101 219.746 113.621C228.136 110.671 241.596 108.801 252.196 108.801C252.636 108.801 253.076 108.801 253.516 108.811C253.646 108.651 253.786 108.491 253.926 108.331L253.946 108.311C253.656 108.281 247.456 107.691 236.696 109.381C230.878 110.07 225.144 111.332 219.576 113.151C218.096 113.591 216.666 114.071 215.296 114.591C215.274 114.602 215.25 114.609 215.226 114.611C211.577 115.782 208.074 117.365 204.786 119.331C204.741 119.351 204.701 119.378 204.666 119.411C188.156 130.281 184.426 147.281 183.596 155.231C181.776 172.611 186.836 187.411 191.736 201.731C193.066 205.641 194.336 209.341 195.466 213.091C200.306 229.211 202.856 244.211 203.116 258.091C203.446 274.921 200.406 290.031 193.986 303.281C190.866 309.741 185.346 317.951 176.616 329.141C161.786 348.131 138.396 373.471 122.926 390.241C117.606 395.991 113.416 400.541 110.946 403.341C108.856 405.701 106.816 408.801 109.546 411.801C110.936 413.331 112.586 414.741 114.736 414.741C115.98 414.698 117.187 414.303 118.216 413.601C135.256 400.521 152.386 385.411 176.086 364.491L185.546 356.151C194.546 348.221 214.676 328.961 222.666 318.251C231.452 306.568 238.21 293.488 242.656 279.561C244.156 274.961 245.499 270.461 246.686 266.061C253.716 240.081 255.666 217.441 257.416 197.111C257.646 194.411 257.879 191.758 258.116 189.151C258.156 187.081 258.176 185.001 258.206 182.931C258.216 181.751 258.236 180.581 258.246 179.401V179.391C258.186 179.331 258.136 179.281 258.086 179.221Z" fill="black"/>
<path d="M258.245 179.391V179.401C258.235 180.581 258.215 181.751 258.205 182.931C258.175 185.001 258.155 187.081 258.115 189.151C257.765 211.601 256.835 233.751 253.215 256.011C252.595 259.821 251.465 264.241 247.895 265.711C247.506 265.873 247.1 265.99 246.685 266.061C246.507 266.101 246.327 266.131 246.145 266.151C245.965 266.171 245.785 266.191 245.605 266.201C244.52 266.246 243.432 266.196 242.355 266.051C231.576 264.88 220.877 263.063 210.315 260.611C208.185 260.183 206.108 259.519 204.125 258.631C203.945 258.541 203.755 258.451 203.575 258.351C203.425 258.261 203.265 258.181 203.115 258.091C202.425 257.678 201.781 257.192 201.195 256.641C198.405 253.991 197.425 250.001 196.595 246.251C190.935 220.681 187.315 197.541 183.725 171.611C183.725 171.611 177.395 135.941 204.665 119.411C204.7 119.378 204.741 119.351 204.785 119.331C208.074 117.365 211.577 115.782 215.225 114.611C215.25 114.609 215.273 114.602 215.295 114.591C222.279 112.289 229.435 110.546 236.695 109.381C247.455 107.691 253.655 108.281 253.945 108.311L253.925 108.331C253.785 108.491 253.645 108.651 253.515 108.811C252.315 110.267 251.393 111.932 250.795 113.721C248.905 119.311 250.895 127.241 252.365 132.941C253.835 138.651 255.855 144.291 256.115 150.181C256.355 155.451 254.265 161.101 254.185 166.371C254.115 171.221 254.505 175.561 258.085 179.221C258.135 179.281 258.185 179.331 258.245 179.391Z" fill="black"/>
<path d="M425.046 226.094C423.186 229.604 419.336 236.714 406.636 234.384C402.025 233.651 397.696 231.689 394.106 228.704C393.168 229.183 392.183 229.565 391.166 229.844C390.052 230.162 388.854 229.812 388.086 228.944C387.026 227.644 387.966 225.814 388.936 224.444C388.276 223.894 387.806 223.474 387.696 223.364C383.676 219.544 380.146 215.514 382.326 209.784C384.166 204.974 392.606 198.654 393.006 194.414C393.316 191.224 389.206 186.544 386.766 184.134C381.636 179.514 378.446 177.914 371.786 175.224C371.113 175.019 370.429 174.856 369.736 174.734C369.926 174.344 370.066 173.924 370.216 173.524C371.646 169.684 374.636 166.094 378.676 165.154C378.977 165.082 379.268 164.978 379.546 164.844C385.636 170.404 390.906 176.714 396.956 182.554C397.726 183.384 399.736 185.294 400.186 185.784C409.296 195.784 411.666 197.004 418.646 204.894C425.666 212.814 427.236 221.964 425.046 226.094Z" fill="white"/>
<path fill-rule="evenodd" clip-rule="evenodd" d="M394.033 229.294C399.013 233.141 405.107 235.265 411.398 235.348C420.706 235.348 423.858 229.401 425.487 226.327C427.848 221.877 426.074 212.519 419.019 204.562C415.542 200.63 413.15 198.295 410.618 195.824L410.603 195.809C408.036 193.303 405.123 190.46 400.554 185.445C400.35 185.222 399.828 184.71 399.243 184.137L399.235 184.129C398.534 183.442 397.742 182.665 397.304 182.193C394.629 179.612 392.069 176.897 389.592 174.27L389.57 174.247L389.553 174.228C386.464 170.953 383.272 167.567 379.883 164.474L379.63 164.242L379.322 164.396C379.08 164.513 378.825 164.604 378.562 164.666C374.735 165.556 371.439 168.802 369.748 173.347L369.644 173.629C369.539 173.93 369.42 174.226 369.286 174.515L368.996 175.113L369.652 175.226C370.309 175.341 370.959 175.495 371.599 175.686C378.094 178.31 381.254 179.841 386.414 184.489C387.924 185.979 392.825 191.097 392.508 194.366C392.307 196.497 389.733 199.405 387.244 202.217L387.241 202.221C385.026 204.724 382.736 207.312 381.858 209.605C379.563 215.637 383.313 219.888 387.342 223.715C387.441 223.815 387.777 224.118 388.268 224.535C386.959 226.529 386.768 228.118 387.698 229.259C388.578 230.262 389.951 230.68 391.24 230.337C392.208 230.096 393.144 229.746 394.033 229.294ZM394.429 228.321L394.178 228.108L393.883 228.255C392.993 228.716 392.058 229.082 391.092 229.348C390.153 229.641 389.13 229.359 388.474 228.627C387.803 227.805 388.096 226.494 389.344 224.732L389.61 224.354L389.256 224.059C388.587 223.501 388.141 223.101 388.041 223C384.089 219.246 380.715 215.423 382.793 209.961C383.605 207.838 385.835 205.318 387.992 202.881L387.993 202.88L387.997 202.875C390.71 199.81 393.272 196.914 393.504 194.461C393.854 190.855 389.153 185.788 387.101 183.761C381.828 179.013 378.442 177.372 371.929 174.744C371.404 174.587 370.912 174.46 370.439 174.359C370.488 174.23 370.536 174.101 370.583 173.972L370.685 173.697C371.9 170.431 374.668 166.599 378.797 165.638C379.019 165.584 379.237 165.515 379.449 165.432C382.719 168.439 385.817 171.724 388.816 174.904L388.843 174.933L388.848 174.938C391.338 177.579 393.912 180.309 396.59 182.893C397.007 183.343 397.788 184.11 398.49 184.798L398.544 184.851C399.111 185.407 399.618 185.904 399.816 186.12C404.404 191.156 407.327 194.009 409.904 196.525L409.919 196.54C412.548 199.104 414.817 201.32 418.272 205.224C424.948 212.756 426.757 221.799 424.605 225.858L424.601 225.865C422.826 229.214 419.137 236.171 406.727 233.891C402.203 233.167 397.956 231.244 394.429 228.321Z" fill="black"/>
<path d="M400.996 229.552C400.753 229.551 400.545 229.376 400.504 229.136C400.151 226.541 401.794 224.092 404.329 223.434C404.503 223.395 404.685 223.452 404.806 223.583C404.927 223.715 404.969 223.901 404.915 224.071C404.862 224.241 404.722 224.371 404.548 224.41C402.521 224.935 401.208 226.893 401.49 228.967C401.514 229.113 401.474 229.261 401.378 229.374C401.283 229.487 401.143 229.552 400.996 229.552Z" fill="black"/>
<path d="M402.879 224.762C402.749 224.762 402.624 224.711 402.531 224.62C402.098 224.199 401.74 223.708 401.472 223.168C401.349 222.92 401.451 222.62 401.698 222.497C401.946 222.375 402.246 222.476 402.369 222.724C402.586 223.163 402.877 223.562 403.228 223.903C403.374 224.045 403.419 224.261 403.343 224.45C403.266 224.638 403.083 224.762 402.879 224.762Z" fill="black"/>
<path d="M401.274 226.338C401.232 226.338 401.19 226.332 401.15 226.322C400.642 226.192 400.157 225.984 399.714 225.705C399.562 225.61 399.473 225.441 399.48 225.262C399.487 225.083 399.588 224.922 399.747 224.839C399.905 224.755 400.096 224.763 400.247 224.859C400.603 225.083 400.991 225.25 401.398 225.353C401.642 225.416 401.801 225.65 401.77 225.9C401.738 226.15 401.526 226.338 401.274 226.338H401.274Z" fill="black"/>
<path d="M400.514 228.486L400.488 228.485L398.996 228.406C398.722 228.389 398.513 228.154 398.527 227.88C398.542 227.606 398.775 227.394 399.049 227.407L400.54 227.486C400.811 227.501 401.021 227.728 401.014 227.999C401.006 228.27 400.785 228.486 400.514 228.486V228.486Z" fill="black"/>
<path d="M384.627 220.103C384.454 220.103 384.293 220.014 384.202 219.867C384.111 219.72 384.102 219.536 384.179 219.381C385.308 217.172 387.569 215.77 390.05 215.742H390.103C390.379 215.743 390.602 215.968 390.601 216.244C390.6 216.52 390.375 216.743 390.099 216.742C390.083 216.74 390.066 216.74 390.05 216.742C387.948 216.766 386.032 217.953 385.075 219.825C384.991 219.995 384.817 220.103 384.627 220.103Z" fill="black"/>
<path d="M429.066 235.14C424.636 240.95 416.616 245.7 409.406 243.07C407.556 242.475 406.022 241.165 405.146 239.43C404.291 237.551 404.641 235.343 406.036 233.82C411.236 229.31 417.146 225.96 418.956 219.74C419.546 217.782 419.308 215.668 418.296 213.89C417.447 212.66 416.264 211.699 414.886 211.12C416.723 210.869 418.156 209.403 418.366 207.56C418.343 205.076 416.465 203.001 413.996 202.73C412.608 202.547 411.209 202.986 410.176 203.93C409.347 202.928 409.017 201.605 409.276 200.33C409.766 198.069 411.814 196.49 414.126 196.59C418.276 196.87 422.876 200.05 426.156 203.36C428.797 205.999 430.927 209.105 432.436 212.52C435.646 219.61 433.786 228.95 429.066 235.14Z" fill="black"/>
<path fill-rule="evenodd" clip-rule="evenodd" d="M435.926 224.064C436.014 224.068 436.101 224.07 436.187 224.07C437.707 224.111 439.159 223.441 440.112 222.257C441.212 220.731 441.524 218.453 441.041 215.483C440.893 213.608 439.996 211.872 438.552 210.668C437.357 209.8 435.87 209.433 434.408 209.645C433.099 209.722 431.876 210.324 431.018 211.315L430.882 211.493L432.95 222.414L433.01 222.573C433.666 223.532 434.764 224.093 435.926 224.064ZM435.974 223.065C435.181 223.089 434.421 222.747 433.915 222.136L431.95 211.758C432.645 211.093 433.554 210.696 434.515 210.639C435.704 210.458 436.917 210.741 437.903 211.428C439.17 212.478 439.948 214.002 440.055 215.644C440.486 218.304 440.227 220.388 439.302 221.672C438.478 222.641 437.242 223.158 435.974 223.065Z" fill="black"/>
<path d="M440.469 214.539C447.765 214.966 455.939 219.756 461.499 225.783C473.791 239.105 481.268 261.783 481.788 282.184C481.934 287.908 481.659 293.743 479.751 299.141C477.842 304.54 474.109 309.502 468.872 311.817C462.868 314.472 447.193 314.013 440.072 304.48C434.193 296.609 433.13 286.085 435.767 276.621C438.403 267.158 443.445 258.512 446.221 249.089C448.996 239.665 447.779 228.511 440.633 220.237L440.469 214.539Z" fill="black"/>
<path d="M414.506 211.654C413.995 211.655 413.489 211.544 413.026 211.327C412.776 211.209 412.668 210.911 412.786 210.661C412.903 210.411 413.201 210.304 413.451 210.422C414.328 210.793 415.331 210.702 416.126 210.179C417.102 209.632 417.75 208.646 417.864 207.534C417.828 205.315 416.147 203.469 413.942 203.226C412.702 203.057 411.451 203.448 410.527 204.292C409.648 205.131 409.328 206.4 409.703 207.556C409.766 207.723 409.735 207.911 409.622 208.049C409.508 208.187 409.33 208.254 409.154 208.225C408.978 208.196 408.831 208.075 408.768 207.908C408.245 206.38 408.659 204.688 409.829 203.575C410.969 202.521 412.518 202.029 414.057 202.233C416.797 202.523 418.873 204.84 418.863 207.595C418.726 209.037 417.896 210.322 416.637 211.038C415.995 211.431 415.259 211.644 414.506 211.654Z" fill="black"/>
<path d="M414.927 208.677C414.728 208.677 414.547 208.558 414.468 208.375C414.389 208.192 414.426 207.98 414.563 207.834C414.862 207.397 414.841 206.816 414.51 206.402C414.137 205.902 413.54 205.62 412.917 205.651C412.784 205.662 412.653 205.618 412.552 205.531C412.452 205.443 412.392 205.318 412.385 205.185C412.376 205.053 412.42 204.922 412.508 204.822C412.595 204.722 412.718 204.661 412.851 204.653C413.818 204.6 414.748 205.038 415.322 205.819C415.939 206.617 415.926 207.735 415.291 208.519C415.197 208.62 415.065 208.677 414.927 208.677Z" fill="black"/>
<path d="M314.773 209.196C308.899 221.296 303.317 234.226 299.651 247.167C298.332 251.824 297.304 256.744 298.313 261.478C299.43 266.726 302.9 271.114 306.267 275.292C317.665 289.435 331.277 307.907 343.027 322.741C345.7 326.122 349.094 328.865 352.961 330.768C354.827 331.684 356.697 332.568 358.247 333.507C360.095 334.572 361.823 335.834 363.399 337.271C363.794 337.644 364.675 338.485 364.16 339.089C363.799 339.514 361.768 338.635 361.255 338.416C359.365 337.58 357.531 336.625 355.762 335.557C355.534 335.426 355.245 335.48 355.08 335.685C354.915 335.89 354.924 336.185 355.102 336.379C358.414 339.994 365.993 346.589 369.757 350.535C370.155 350.973 370.505 351.453 370.801 351.967C370.939 352.203 370.947 352.494 370.822 352.738C370.697 352.982 370.457 353.146 370.184 353.172C369.79 353.234 369.276 352.989 368.541 352.359C365.981 350.164 363.705 348.345 361.156 346.137C360.95 345.959 359.826 345.113 359.307 345.31C358.896 345.466 358.653 345.826 358.96 346.164C361.707 348.885 364.655 351 367.312 353.809C368.137 354.584 368.895 355.428 369.576 356.332C369.836 356.725 369.776 357.247 369.436 357.572C368.783 358.216 367.916 357.633 367.533 357.272C365.091 354.977 362.686 352.66 360.244 350.364C359.168 349.353 357.428 347.692 356.823 348.085C356.489 348.394 356.739 348.793 357.053 349.211C360.033 352.532 362.786 355.032 365.772 358.346C366.426 359.071 366.835 359.964 366.233 360.399C365.716 360.832 364.203 359.699 362.537 358.032C360.388 355.883 358.873 354.21 356.451 352.092C355.754 351.482 354.326 350.305 353.868 350.861C353.868 350.861 352.954 350.93 360.33 358.377C361.638 359.699 361.629 360.558 361.324 360.858C360.702 361.381 359.173 360.275 358.298 359.471L352.327 353.564C349.787 351.033 347.438 348.319 345.298 345.442C342.468 341.96 339.07 337.143 338.613 330.762C338.543 329.786 338.138 328.863 337.465 328.151C323.604 313.443 308.099 296.404 294.327 281.822C289.447 276.655 284.423 271.251 282.23 264.491C280.134 258.032 280.855 251.029 281.84 244.31C284.005 229.566 287.331 215.017 291.789 200.797" fill="white"/>
<path d="M360.915 361.48C359.875 361.48 358.566 360.398 357.96 359.84L351.975 353.92C349.944 351.965 348.073 349.85 346.38 347.595C345.897 346.987 345.41 346.373 344.91 345.758C341.806 341.939 338.57 337.175 338.114 330.799C338.051 329.938 337.693 329.124 337.101 328.496C330.361 321.343 323.113 313.511 316.105 305.937C308.697 297.933 301.038 289.657 293.964 282.166C289.305 277.233 284.024 271.642 281.754 264.646C279.592 257.984 280.409 250.619 281.345 244.238C283.517 229.469 286.85 214.894 291.312 200.648L292.267 200.947C287.819 215.143 284.499 229.666 282.335 244.384C281.373 250.939 280.609 257.88 282.705 264.338C284.905 271.119 290.104 276.624 294.69 281.48C301.769 288.974 309.43 297.252 316.838 305.258C323.846 312.831 331.092 320.661 337.829 327.81C338.579 328.606 339.032 329.636 339.112 330.727C339.548 336.827 342.68 341.429 345.686 345.127C346.189 345.745 346.678 346.362 347.163 346.974C348.829 349.191 350.668 351.272 352.664 353.197L358.65 359.117C359.873 360.24 360.846 360.604 361.002 360.476C361.024 360.433 361.064 359.831 359.974 358.73C353.004 351.692 353.233 351.081 353.368 350.715L353.481 350.416L353.643 350.391C353.782 350.291 353.946 350.232 354.116 350.22C354.705 350.187 355.541 350.632 356.78 351.717C358.583 353.293 359.906 354.645 361.309 356.077C361.811 356.589 362.328 357.119 362.89 357.68C365.267 360.055 365.962 359.99 365.959 359.992C365.998 359.957 366.021 359.908 366.025 359.856C365.961 359.404 365.74 358.988 365.401 358.682C363.932 357.051 362.493 355.592 361.102 354.181C359.673 352.732 358.195 351.234 356.682 349.546C356.396 349.169 355.789 348.364 356.482 347.72C357.408 347.116 358.731 348.254 360.507 349.926L360.587 350.001C361.829 351.168 363.065 352.339 364.293 353.514C365.484 354.648 366.678 355.78 367.875 356.91C368.004 357.031 368.675 357.621 369.085 357.216C369.263 357.056 369.291 356.786 369.149 356.593C368.671 355.927 368.129 355.309 367.529 354.75C367.321 354.539 367.122 354.337 366.948 354.154C365.516 352.687 364.009 351.295 362.435 349.982C361.17 348.89 359.861 347.761 358.608 346.52C358.374 346.292 358.276 345.96 358.347 345.641C358.458 345.262 358.752 344.963 359.129 344.844C360.015 344.505 361.424 345.71 361.483 345.76C362.852 346.946 364.142 348.019 365.439 349.098C366.558 350.029 367.682 350.964 368.866 351.98C369.631 352.635 369.975 352.702 370.106 352.678C370.224 352.66 370.329 352.591 370.392 352.489C370.405 352.461 370.449 352.376 370.357 352.196C370.082 351.726 369.76 351.285 369.396 350.881C367.612 349.012 364.92 346.5 362.316 344.07C359.447 341.394 356.482 338.626 354.733 336.718C354.389 336.342 354.371 335.772 354.69 335.374C355.008 334.977 355.569 334.871 356.011 335.124L356.419 335.359C358.04 336.33 359.721 337.198 361.451 337.957C362.189 338.34 362.986 338.593 363.81 338.707C363.841 338.574 363.738 338.28 363.056 337.635C361.505 336.223 359.806 334.983 357.988 333.935C356.673 333.139 355.142 332.391 353.521 331.599L352.74 331.218C348.81 329.277 345.358 326.488 342.636 323.052C337.267 316.275 331.415 308.615 325.756 301.207C319.026 292.397 312.068 283.287 305.878 275.607C302.65 271.6 298.989 267.059 297.823 261.583C296.774 256.65 297.915 251.459 299.17 247.032C302.345 235.826 307.159 223.734 314.322 208.979L315.223 209.415C308.085 224.117 303.29 236.156 300.133 247.304C298.849 251.831 297.8 256.668 298.802 261.375C299.917 266.617 303.498 271.06 306.657 274.979C312.854 282.669 319.817 291.784 326.55 300.599C332.207 308.003 338.056 315.661 343.419 322.431C346.049 325.751 349.383 328.445 353.181 330.32L353.959 330.701C355.602 331.502 357.152 332.26 358.506 333.08C360.384 334.163 362.14 335.447 363.741 336.909C364.144 337.288 365.368 338.443 364.541 339.415C364.107 339.921 363.17 339.778 361.09 338.89C359.313 338.111 357.587 337.221 355.921 336.226L355.513 335.992C357.192 337.921 360.144 340.675 362.998 343.338C365.612 345.779 368.317 348.301 370.118 350.191C370.55 350.664 370.927 351.182 371.245 351.738C371.455 352.109 371.469 352.559 371.283 352.942C371.076 353.331 370.697 353.599 370.262 353.666C369.699 353.748 369.068 353.469 368.216 352.74C367.034 351.727 365.914 350.794 364.799 349.868C363.497 348.784 362.202 347.706 360.828 346.516C360.442 346.166 359.976 345.914 359.472 345.782C359.41 345.803 359.356 345.84 359.314 345.889C360.54 347.027 361.835 348.144 363.088 349.224C364.688 350.559 366.219 351.975 367.675 353.466C367.844 353.645 368.037 353.841 368.24 354.046C368.897 354.66 369.488 355.339 370.004 356.075C370.384 356.665 370.293 357.443 369.786 357.929C369.405 358.238 368.916 358.382 368.428 358.327C367.94 358.273 367.494 358.025 367.191 357.639C365.988 356.508 364.793 355.375 363.604 354.239C362.373 353.067 361.139 351.897 359.901 350.73L359.821 350.655C359.041 349.853 358.166 349.149 357.214 348.561C357.287 348.682 357.367 348.799 357.453 348.912C358.924 350.548 360.393 352.038 361.814 353.479C363.213 354.898 364.659 356.365 366.144 358.012C366.676 358.525 366.99 359.223 367.02 359.961C366.986 360.301 366.806 360.609 366.526 360.805C366.052 361.201 365.103 361.306 362.183 358.387C361.618 357.823 361.099 357.292 360.594 356.777C359.206 355.359 357.896 354.02 356.122 352.469C355.661 352.038 355.15 351.663 354.601 351.351C356.465 353.72 358.498 355.951 360.685 358.027C361.416 358.613 361.886 359.464 361.992 360.395C362.017 360.688 361.912 360.978 361.705 361.187C361.497 361.396 361.209 361.503 360.915 361.48L360.915 361.48Z" fill="black"/>
<path d="M266.452 102.888C279.08 101.771 295.66 107.663 306.801 112.112C348.882 128.913 371.991 150.299 379.49 159.011C380.386 159.931 380.977 161.104 381.182 162.372C381.279 163.614 380.377 164.739 378.679 165.156C374.64 166.088 371.646 169.684 370.22 173.521C370.019 174.311 369.632 175.04 369.091 175.648C368.286 176.217 367.314 176.5 366.329 176.455C357.428 177.002 352.387 177.532 344.764 182.006C341.304 184.037 337.249 188.176 333.798 190.223C328.915 193.119 325.279 194.28 318.705 194.83C313.766 194.933 308.831 194.465 303.999 193.435C290.127 190.319 281.691 188.79 269.628 185.359C266.657 184.514 261.433 182.187 259.086 180.177C254.579 176.316 254.11 171.646 254.19 166.375C254.27 161.104 256.356 155.451 256.119 150.185C255.853 144.297 253.837 138.654 252.365 132.947C250.892 127.24 248.906 119.309 250.799 113.727C252.691 108.146 257.337 103.694 266.452 102.888Z" fill="white"/>
<path fill-rule="evenodd" clip-rule="evenodd" d="M303.889 193.924C308.308 194.869 312.814 195.347 317.332 195.348C317.809 195.348 318.282 195.342 318.747 195.33C325.289 194.783 329.009 193.646 334.053 190.655C335.982 189.412 337.82 188.034 339.553 186.531C341.273 185.036 343.099 183.668 345.017 182.439C352.602 177.987 357.552 177.497 366.36 176.956C368.34 177.244 370.199 175.931 370.589 173.968L370.688 173.697C371.904 170.428 374.671 166.595 378.798 165.644C380.67 165.183 381.801 163.884 381.68 162.335C381.48 160.957 380.846 159.679 379.869 158.687C375.941 154.123 353.968 130.407 306.987 111.649C295.678 107.134 279.17 101.261 266.408 102.392C255.933 103.318 251.88 108.981 250.325 113.568C248.35 119.392 250.474 127.625 251.88 133.073L251.88 133.074C252.228 134.423 252.607 135.769 252.986 137.115L252.987 137.12C254.182 141.372 255.418 145.769 255.619 150.209C255.622 153.102 255.302 155.986 254.667 158.809C254.135 161.298 253.808 163.826 253.69 166.369C253.615 171.287 253.945 176.433 258.761 180.559C261.272 182.709 266.7 185.048 269.492 185.842C278.334 188.357 285.128 189.83 293.73 191.693C296.842 192.368 300.17 193.089 303.889 193.924ZM251.272 113.89C253.395 107.627 258.518 104.094 266.496 103.388L266.496 103.388C279.045 102.274 295.403 108.101 306.616 112.578C353.381 131.249 375.209 154.807 379.111 159.339C379.944 160.173 380.494 161.248 380.684 162.412C380.765 163.464 379.952 164.33 378.567 164.671C374.059 165.71 371.057 169.835 369.75 173.349L369.649 173.628C369.528 174.389 369.102 175.067 368.47 175.506C367.838 175.946 367.054 176.109 366.299 175.957C357.585 176.493 352.278 177.018 344.511 181.577C342.547 182.832 340.677 184.229 338.917 185.759C337.223 187.229 335.428 188.577 333.543 189.794C328.648 192.698 325.033 193.801 318.693 194.331C313.794 194.438 308.899 193.974 304.108 192.949C300.386 192.113 297.056 191.391 293.942 190.716L293.933 190.714C285.353 188.855 278.575 187.386 269.765 184.88C266.634 183.989 261.612 181.684 259.412 179.799C254.921 175.953 254.616 171.259 254.69 166.384C254.808 163.897 255.129 161.425 255.651 158.99C256.302 156.093 256.626 153.133 256.618 150.164C256.412 145.607 255.16 141.153 253.948 136.845L253.948 136.844C253.572 135.505 253.195 134.166 252.849 132.824C251.473 127.491 249.393 119.431 251.272 113.89Z" fill="black"/>
<path fill-rule="evenodd" clip-rule="evenodd" d="M276.942 122.215C276.942 124.387 278.703 126.148 280.875 126.148C283.047 126.145 284.807 124.386 284.809 122.214C284.809 120.042 283.048 118.281 280.876 118.281C278.703 118.281 276.942 120.042 276.942 122.215ZM278.166 121.092C278.62 119.996 279.689 119.281 280.875 119.281C282.495 119.283 283.807 120.595 283.809 122.214C283.809 123.401 283.095 124.47 281.999 124.925C280.902 125.379 279.641 125.128 278.802 124.289C277.963 123.45 277.712 122.188 278.166 121.092Z" fill="black"/>
<path fill-rule="evenodd" clip-rule="evenodd" d="M298.97 144.314C299.579 145.784 301.013 146.742 302.604 146.742C304.775 146.739 306.534 144.979 306.537 142.808C306.537 141.217 305.578 139.783 304.108 139.174C302.638 138.566 300.947 138.902 299.822 140.028C298.697 141.153 298.361 142.845 298.97 144.314ZM299.894 141.685C300.348 140.589 301.418 139.875 302.604 139.875C304.223 139.878 305.535 141.189 305.537 142.808C305.537 143.995 304.822 145.064 303.726 145.519C302.63 145.973 301.368 145.722 300.529 144.882C299.69 144.043 299.439 142.782 299.894 141.685Z" fill="black"/>
<path d="M333.2 127.889C331.79 127.887 330.489 127.13 329.79 125.906C329.092 124.681 329.102 123.176 329.818 121.961L330.679 122.468C329.869 123.863 330.337 125.651 331.728 126.469C333.118 127.288 334.909 126.83 335.736 125.445L336.597 125.953C335.888 127.154 334.596 127.891 333.2 127.889Z" fill="black"/>
<path fill-rule="evenodd" clip-rule="evenodd" d="M266.642 155.02C266.642 157.192 268.403 158.953 270.575 158.953C272.746 158.95 274.506 157.19 274.508 155.019C274.508 152.847 272.747 151.086 270.575 151.086C268.402 151.086 266.641 152.847 266.642 155.02ZM267.865 153.897C268.319 152.8 269.389 152.086 270.575 152.086C272.194 152.088 273.506 153.4 273.508 155.019C273.508 156.206 272.794 157.275 271.698 157.729C270.601 158.183 269.34 157.932 268.501 157.093C267.662 156.255 267.411 154.993 267.865 153.897Z" fill="black"/>
<path fill-rule="evenodd" clip-rule="evenodd" d="M358.858 156.525C359.467 157.995 360.902 158.953 362.493 158.953C364.664 158.95 366.423 157.19 366.425 155.019C366.425 153.428 365.467 151.994 363.997 151.385C362.527 150.777 360.835 151.113 359.71 152.238C358.586 153.364 358.249 155.055 358.858 156.525ZM359.782 153.896C360.236 152.8 361.306 152.086 362.493 152.086C364.112 152.088 365.423 153.4 365.425 155.019C365.426 156.206 364.711 157.275 363.615 157.729C362.518 158.184 361.257 157.932 360.418 157.093C359.579 156.254 359.328 154.993 359.782 153.896Z" fill="black"/>
<path d="M303.581 156.82C297.54 167.718 292.374 179.078 288.135 190.795C287.403 192.817 286.703 195.08 287.54 197.061C288.324 198.915 290.238 199.99 292.042 200.885C297.511 203.596 303.169 205.906 308.973 207.798C312.811 209.048 317.067 210.1 320.794 208.551C324.347 207.076 326.579 203.587 328.504 200.256C334.48 189.91 339.688 179.139 344.084 168.028" fill="white"/>
<path d="M303.15 156.567C298.684 164.645 294.688 172.973 291.182 181.511C289.598 185.376 287.321 189.705 286.758 193.876C286.293 197.317 288.242 199.436 291.11 200.97C294.896 202.935 298.801 204.661 302.802 206.14C306.675 207.624 310.771 209.284 314.925 209.723C323.568 210.636 327.395 203.359 331.025 196.815C336.145 187.562 340.667 177.99 344.566 168.16C344.804 167.562 343.837 167.303 343.602 167.894C340.544 175.597 337.101 183.14 333.284 190.496C331.5 193.929 329.655 197.341 327.682 200.67C325.73 203.965 323.349 207.418 319.445 208.47C315.43 209.552 311.153 208.028 307.37 206.735C303.368 205.367 299.439 203.797 295.597 202.03C294.005 201.348 292.451 200.583 290.94 199.738C288.233 198.124 287.241 195.973 287.992 192.878C289.056 189.23 290.385 185.664 291.969 182.209C295.488 173.602 299.51 165.208 304.013 157.072C304.324 156.508 303.461 156.003 303.15 156.567L303.15 156.567Z" fill="black"/>
<path d="M324.778 205.606C323.593 204.849 322.903 203.516 322.968 202.111C323.033 200.706 323.843 199.443 325.093 198.798C326.342 198.152 327.841 198.224 329.024 198.984L328.485 199.826C327.603 199.26 326.486 199.208 325.555 199.689C324.624 200.17 324.02 201.111 323.971 202.158C323.922 203.205 324.435 204.199 325.317 204.765L324.778 205.606Z" fill="black"/>
<path fill-rule="evenodd" clip-rule="evenodd" d="M298.97 188.041C299.579 189.511 301.013 190.469 302.604 190.468C304.775 190.465 306.534 188.706 306.537 186.535C306.537 184.944 305.578 183.51 304.108 182.901C302.638 182.292 300.947 182.629 299.822 183.754C298.697 184.879 298.361 186.571 298.97 188.041ZM299.894 185.412C300.348 184.316 301.418 183.601 302.604 183.602C304.223 183.604 305.535 184.916 305.537 186.535C305.537 187.721 304.822 188.791 303.726 189.245C302.63 189.699 301.368 189.448 300.529 188.609C299.69 187.77 299.439 186.508 299.894 185.412Z" fill="black"/>
<path fill-rule="evenodd" clip-rule="evenodd" d="M330.611 168.175C330.611 170.348 332.372 172.109 334.544 172.109C336.716 172.106 338.476 170.347 338.478 168.175C338.478 166.003 336.717 164.242 334.545 164.242C332.372 164.242 330.611 166.003 330.611 168.175ZM331.611 168.176C331.611 166.556 332.924 165.242 334.544 165.242V165.242C336.164 165.244 337.476 166.556 337.478 168.175C337.478 169.795 336.165 171.109 334.545 171.109C332.925 171.109 331.611 169.796 331.611 168.176Z" fill="black"/>
<path d="M409.893 33.8764C408.277 31.6743 406.078 29.9671 403.544 28.947C403.305 28.8125 403.002 28.8919 402.86 29.1264C401.457 31.9855 400.023 34.8255 399.627 38.0226H400.627C400.53 34.8053 400.042 31.6373 400.513 28.4242C400.578 28.159 400.425 27.8892 400.164 27.8091C397.155 27.0587 394.27 25.8751 391.601 24.2955L391.349 25.2272C394.668 24.9994 398.066 25.1926 401.278 24.1915C401.539 24.1113 401.692 23.8416 401.627 23.5765C401.171 20.1234 400.968 16.6415 401.021 13.1587L400.039 13.2917C401.022 16.2429 402.095 19.1596 403.259 22.0417C403.304 22.1891 403.412 22.3085 403.555 22.3665C403.698 22.4246 403.859 22.415 403.994 22.3405C407.174 20.6778 409.665 17.8021 412.544 15.6991L411.86 15.015C410.083 18.4102 408.133 21.7113 406.015 24.9051C405.403 25.9024 404.948 26.3016 405.293 27.4529C406.025 29.8913 407.824 32.1625 409.03 34.3811C409.337 34.9467 410.201 34.4425 409.893 33.8764C409.278 32.7447 408.629 31.6342 407.99 30.5162C407.484 29.6321 406.352 28.2182 406.258 27.1871C406.159 26.1069 406.999 25.2149 407.601 24.2386C409.46 21.4238 411.169 18.5135 412.723 15.5198C412.916 15.1179 412.483 14.5117 412.039 14.8357C409.159 16.9397 406.666 19.8163 403.489 21.477L404.223 21.7758C403.062 18.8905 401.989 15.9738 401.003 13.0258C400.931 12.7913 400.699 12.6435 400.456 12.6764C400.213 12.7094 400.029 12.9134 400.021 13.1588C399.973 16.7309 400.188 20.3017 400.663 23.8423L401.012 23.2273C397.889 24.2007 394.577 24.0057 391.349 24.2273C391.126 24.234 390.935 24.3852 390.877 24.5996C390.819 24.814 390.908 25.0411 391.096 25.159C393.84 26.7838 396.805 28.0014 399.898 28.7734L399.549 28.1584C399.064 31.4667 399.527 34.7065 399.627 38.0227C399.637 38.2917 399.858 38.5046 400.127 38.5046C400.396 38.5046 400.617 38.2917 400.627 38.0227C400.999 35.019 402.407 32.3139 403.723 29.6311L403.039 29.8105C405.421 30.7494 407.495 32.3318 409.029 34.3811C409.381 34.9174 410.247 34.4169 409.893 33.8764Z" fill="black"/>
<path d="M535.949 239.922C534.333 237.72 532.134 236.013 529.6 234.992C529.361 234.858 529.058 234.937 528.916 235.172C527.158 238.863 525.447 243.02 525 247.108H526C525.826 242.887 526.017 238.658 526.57 234.47C526.636 234.204 526.482 233.934 526.22 233.855C523.318 233.061 520.272 232.979 517.657 231.352L517.405 232.283C520.161 231.996 523.774 232.077 526.183 230.541C526.336 230.452 526.431 230.288 526.43 230.11C526.092 226.425 526.304 222.66 526.255 218.963L525.273 219.096C526.488 222.619 528.218 225.933 529.645 229.369C529.729 229.628 529.996 229.779 530.26 229.718C532.365 229.417 534.32 228.455 536.416 228.063L535.929 227.227C534.91 228.136 533.948 229.112 532.98 230.076C532.472 230.582 531.238 231.409 531.033 232.136C530.828 232.865 531.621 234.104 531.927 234.714C532.901 236.658 534.051 238.514 535.086 240.426C535.392 240.993 536.256 240.488 535.949 239.922C535.129 238.405 534.249 236.922 533.426 235.407C533.012 234.647 531.927 232.979 532.094 232.389C532.273 231.755 533.825 230.644 534.299 230.176C535.066 229.418 535.831 228.652 536.636 227.934C537.04 227.575 536.601 227.014 536.15 227.099C534.054 227.491 532.1 228.452 529.994 228.754L530.61 229.103C529.183 225.668 527.452 222.351 526.237 218.83C526.165 218.596 525.933 218.448 525.69 218.481C525.447 218.514 525.263 218.718 525.255 218.963C525.298 222.212 525.241 225.465 525.353 228.713C525.361 228.942 525.496 229.689 525.378 229.869C525.095 230.301 523.445 230.476 522.97 230.569C521.135 230.93 519.263 231.089 517.405 231.283C517.183 231.29 516.992 231.441 516.934 231.656C516.876 231.87 516.964 232.097 517.153 232.215C519.849 233.893 522.956 233.999 525.955 234.819L525.605 234.204C525.032 238.48 524.83 242.797 525 247.108C525.01 247.377 525.231 247.59 525.5 247.59C525.769 247.59 525.99 247.377 526 247.108C526.425 243.221 528.111 239.18 529.779 235.677L529.095 235.856C531.477 236.795 533.551 238.377 535.086 240.427C535.437 240.963 536.303 240.462 535.949 239.922Z" fill="black"/>
<path d="M51.7303 165.145C50.1139 162.943 47.9149 161.236 45.381 160.216C45.1418 160.082 44.8395 160.161 44.6969 160.395C43.3868 162.957 41.7995 165.224 41.423 168.135H42.423C42.3372 165.287 41.9179 162.539 42.3506 159.693C42.4157 159.428 42.2624 159.158 42.0013 159.078C39.2977 158.392 36.7124 157.304 34.3323 155.849L34.0799 156.781C36.8203 156.592 39.4577 156.6 42.0988 155.757C42.3593 155.676 42.5122 155.407 42.448 155.142C42.0347 151.615 42.1672 148.046 42.8407 144.56H41.8764C42.8259 147.655 43.1948 150.895 44.3372 153.933C44.4155 154.195 44.6868 154.349 44.9522 154.282C47.317 153.635 49.6312 152.815 51.8762 151.83L51.1921 151.146C50.3393 152.702 49.3063 154.152 48.1144 155.466C47.7191 155.932 46.5426 156.828 46.3771 157.469C46.1629 158.298 46.9904 159.404 47.3799 160.057C48.5067 161.945 49.7995 163.724 50.8667 165.65C51.1787 166.213 52.0427 165.709 51.7302 165.145C50.7706 163.414 49.6392 161.797 48.5941 160.118C48.2697 159.598 47.9597 159.076 47.6697 158.536C47.0635 157.405 47.2431 158.267 47.5016 157.674C47.8867 156.791 49.1484 155.805 49.761 155.038C50.6401 153.99 51.409 152.856 52.0555 151.651C52.1621 151.454 52.1268 151.211 51.9688 151.053C51.8109 150.895 51.5678 150.86 51.3714 150.967C49.2036 151.913 46.9692 152.699 44.6864 153.318L45.3015 153.667C44.1591 150.629 43.7902 147.389 42.8407 144.294C42.7077 143.861 41.9599 143.778 41.8764 144.294C41.17 147.956 41.0375 151.705 41.4837 155.407L41.8329 154.792C39.2984 155.436 36.6948 155.768 34.0799 155.781C33.8579 155.788 33.6665 155.939 33.6084 156.153C33.5503 156.368 33.6393 156.595 33.8275 156.713C36.281 158.214 38.9471 159.336 41.7355 160.042L41.3863 159.427C40.9397 162.365 41.3343 165.19 41.423 168.135C41.4331 168.404 41.6539 168.616 41.923 168.616C42.1921 168.616 42.4129 168.404 42.423 168.135C42.7713 165.442 44.3534 163.26 45.5604 160.9L44.8763 161.079C47.2581 162.018 49.3322 163.6 50.8668 165.65C51.2178 166.186 52.0841 165.686 51.7303 165.145Z" fill="black"/>
<path d="M134.956 21.2075C133.34 19.0055 131.141 17.2983 128.607 16.2782C128.368 16.1441 128.065 16.2234 127.923 16.4575C126.612 19.0195 125.025 21.2869 124.649 24.1973H125.649C125.563 21.3493 125.144 18.6013 125.576 15.7554C125.642 15.4901 125.488 15.22 125.227 15.1403C122.07 14.2248 118.743 13.7133 115.931 11.9119L115.679 12.8436C118.912 12.624 122.196 12.7906 125.324 11.8191C125.585 11.7386 125.738 11.4692 125.674 11.2041C125.26 7.67777 125.393 4.10882 126.066 0.62284H125.102C126.052 3.71748 126.421 6.95726 127.563 9.9954C127.641 10.2578 127.913 10.4119 128.178 10.3446C130.543 9.69746 132.857 8.87794 135.102 7.89261L134.418 7.20851C133.565 8.76447 132.532 10.2146 131.34 11.529C130.945 11.9943 129.768 12.8902 129.603 13.5311C129.389 14.3607 130.216 15.4664 130.606 16.119C131.733 18.0072 133.025 19.7868 134.093 21.7122C134.405 22.2752 135.269 21.7714 134.956 21.2075C133.996 19.4762 132.865 17.8595 131.82 16.181C131.496 15.6601 131.185 15.1389 130.896 14.5983C130.289 13.4679 130.469 14.3294 130.727 13.7365C131.112 12.8531 132.374 11.8671 132.987 11.1001C133.866 10.053 134.635 8.91802 135.281 7.71323C135.388 7.51687 135.353 7.27381 135.195 7.11583C135.037 6.95785 134.794 6.92258 134.597 7.02913C132.429 7.97519 130.195 8.76103 127.912 9.38031L128.527 9.72953C127.385 6.69138 127.016 3.45163 126.066 0.35697C125.933 -0.0764201 125.186 -0.15974 125.102 0.35697C124.396 4.0185 124.263 7.76766 124.709 11.4699L125.059 10.8549C122.017 11.7992 118.821 11.6302 115.679 11.8436C115.457 11.8503 115.265 12.0015 115.207 12.2159C115.149 12.4304 115.238 12.6575 115.426 12.7754C118.315 14.6262 121.716 15.1636 124.961 16.1046L124.612 15.4895C124.165 18.4274 124.56 21.2527 124.649 24.1973C124.659 24.4662 124.88 24.679 125.149 24.679C125.418 24.679 125.639 24.4662 125.649 24.1973C125.997 21.5048 127.579 19.3225 128.786 16.9622L128.102 17.1416C130.484 18.0805 132.558 19.663 134.092 21.7122C134.444 22.2486 135.31 21.7481 134.956 21.2075Z" fill="black"/>
<circle cx="315.044" cy="65.046" r="2.4366" fill="black"/>
<circle cx="102.857" cy="199.491" r="2.4366" fill="black"/>
<circle cx="193.063" cy="82.4132" r="2.4366" fill="black"/>
<circle cx="2.58992" cy="222.632" r="2.4366" fill="black"/>
<circle cx="516.758" cy="147.085" r="2.4366" fill="black"/>
<circle cx="489.174" cy="49.3585" r="2.4366" fill="black"/>
<circle cx="503.516" cy="342.687" r="2.4366" fill="black"/>
<circle cx="406.479" cy="114.541" r="3.25964" fill="black"/>
<circle cx="209.016" cy="3.75183" r="3.25964" fill="black"/>
<circle cx="97.161" cy="70.4706" r="3.25964" fill="black"/>
<circle cx="46.1112" cy="277.525" r="3.25964" fill="black"/>
<circle cx="20.2596" cy="105.103" r="3.25964" fill="black"/>
</svg>
