<svg width="587" height="604" viewBox="0 0 587 604" fill="none" xmlns="http://www.w3.org/2000/svg">
<path d="M116.34 114.321C116.048 114.321 115.755 114.307 115.461 114.277C111.843 113.918 108.342 111.625 105.858 107.988C105.757 107.841 105.742 107.651 105.82 107.489C105.897 107.328 106.055 107.221 106.233 107.207C106.411 107.194 106.583 107.276 106.684 107.424C109.001 110.816 112.236 112.952 115.56 113.283C119.323 113.642 123.055 111.312 123.886 108.057C124.383 105.698 123.617 103.25 121.863 101.597C120.932 100.762 119.585 100.584 118.47 101.149C117.464 101.663 116.963 102.818 117.274 103.903C117.63 105.264 118.893 106.187 120.297 106.113C120.326 106.113 120.359 106.112 120.385 106.112C120.661 106.11 120.887 106.332 120.89 106.608C120.892 106.884 120.67 107.11 120.394 107.112C118.497 107.23 116.783 105.987 116.304 104.147C115.864 102.603 116.59 100.964 118.03 100.252C119.498 99.5105 121.269 99.7384 122.501 100.827C124.536 102.739 125.427 105.572 124.855 108.305C123.972 111.761 120.262 114.321 116.34 114.321Z" fill="black"/>
<path d="M54.204 317.972C53.5127 317.964 52.8427 317.732 52.2943 317.311C50.6389 315.955 49.8247 313.825 50.1542 311.71C50.7069 308.837 53.7806 306.627 57.0262 306.73C60.052 306.99 62.8104 308.568 64.5692 311.043C64.7377 311.262 64.6975 311.576 64.4795 311.745C64.2615 311.914 63.9478 311.874 63.7782 311.657C62.2002 309.415 59.7173 307.979 56.9872 307.73C54.1996 307.626 51.5995 309.493 51.1366 311.9C50.8924 313.633 51.5526 315.371 52.8862 316.504C53.5759 317.064 54.5417 317.132 55.3036 316.676C55.984 316.282 56.2829 315.456 56.0126 314.717C55.6922 313.756 54.733 313.159 53.7289 313.295C53.4547 313.314 53.2158 313.11 53.1913 312.836C53.181 312.704 53.2236 312.573 53.3098 312.473C53.396 312.372 53.5186 312.31 53.6508 312.299C55.1199 312.12 56.5099 313.007 56.9658 314.416C57.3824 315.605 56.8903 316.922 55.7958 317.546C55.3092 317.819 54.7619 317.966 54.204 317.972Z" fill="black"/>
<path d="M504.617 259.083C504.511 259.083 504.407 259.049 504.322 258.987C503.091 257.954 502.36 256.445 502.315 254.839C502.055 252.342 502.792 249.844 504.364 247.887C506.893 245.4 510.406 244.179 513.933 244.561C516.843 244.862 519.508 246.325 521.325 248.618C522.559 250.392 522.887 252.644 522.208 254.696C521.519 256.361 519.978 257.52 518.187 257.719C516.166 258.194 514.087 257.204 513.181 255.337C512.454 254.056 512.686 252.445 513.744 251.422C513.955 251.244 514.269 251.27 514.448 251.48C514.626 251.69 514.6 252.005 514.391 252.183C513.686 252.917 513.56 254.033 514.083 254.906C514.789 256.37 516.428 257.135 518.003 256.737C519.451 256.59 520.705 255.668 521.278 254.33C521.831 252.599 521.552 250.71 520.522 249.214C518.884 247.147 516.482 245.829 513.859 245.559C510.632 245.198 507.413 246.304 505.09 248.574C503.709 250.318 503.07 252.535 503.311 254.747C503.334 256.066 503.916 257.313 504.911 258.178C505.087 258.306 505.16 258.532 505.092 258.738C505.025 258.944 504.833 259.083 504.616 259.083L504.617 259.083Z" fill="black"/>
<path d="M296.468 404.772C292.784 404.629 289.455 402.533 287.733 399.273C286.132 396.371 285.59 392.728 286.123 388.446C286.145 388.269 286.26 388.117 286.425 388.047C286.589 387.978 286.778 388.001 286.921 388.109C287.063 388.216 287.138 388.392 287.116 388.569C286.61 392.638 287.112 396.077 288.608 398.791C290.222 401.884 293.441 403.805 296.93 403.758C298.749 403.742 300.47 402.935 301.646 401.547C302.617 400.241 302.976 398.578 302.629 396.988C302.173 395.217 300.677 393.907 298.861 393.689C297.592 393.432 296.306 394.042 295.703 395.187C295.58 395.434 295.28 395.533 295.033 395.41C294.786 395.287 294.686 394.987 294.809 394.74C295.59 393.197 297.303 392.362 298.999 392.699C301.238 392.983 303.07 394.614 303.612 396.805C304.013 398.676 303.584 400.629 302.436 402.16C301.088 403.778 299.1 404.726 296.994 404.756C296.82 404.767 296.643 404.772 296.468 404.772Z" fill="black"/>
<path fill-rule="evenodd" clip-rule="evenodd" d="M48.1689 140.704C48.1691 143.383 50.3414 145.556 53.0211 145.556C55.6996 145.552 57.8702 143.382 57.8731 140.703C57.8728 138.023 55.7003 135.851 53.0207 135.852C50.341 135.852 48.1688 138.024 48.1689 140.704ZM49.4621 139.23C50.0584 137.79 51.463 136.852 53.0211 136.852C55.1474 136.854 56.8706 138.577 56.8731 140.703C56.8733 142.261 55.9349 143.666 54.4955 144.262C53.056 144.859 51.3991 144.529 50.2973 143.428C49.1956 142.326 48.8659 140.669 49.4621 139.23Z" fill="black"/>
<path fill-rule="evenodd" clip-rule="evenodd" d="M576.539 198.641C576.539 201.321 578.711 203.493 581.391 203.493C584.069 203.49 586.24 201.319 586.243 198.641C586.243 195.961 584.071 193.789 581.391 193.789C578.711 193.789 576.539 195.961 576.539 198.641ZM577.539 198.642C577.539 196.514 579.263 194.789 581.391 194.789C583.517 194.791 585.241 196.514 585.243 198.641C585.243 200.768 583.519 202.493 581.392 202.493C579.264 202.493 577.539 200.769 577.539 198.642Z" fill="black"/>
<path d="M518.237 107.57C518.034 107.57 517.85 107.447 517.774 107.258C517.697 107.069 517.743 106.852 517.89 106.711C518.884 105.755 519.291 104.341 518.958 103.003C518.625 101.665 517.603 100.607 516.277 100.229C514.951 99.8507 513.524 100.21 512.535 101.171C512.337 101.363 512.02 101.358 511.828 101.159C511.636 100.961 511.641 100.644 511.84 100.452C513.086 99.2457 514.881 98.7962 516.549 99.273C518.216 99.7498 519.503 101.08 519.923 102.763C520.343 104.446 519.833 106.225 518.585 107.43C518.492 107.52 518.367 107.57 518.237 107.57Z" fill="black"/>
<path d="M149.67 13.7161C149.49 13.7164 149.323 13.6193 149.235 13.4622C148.38 11.954 148.396 10.1046 149.274 8.61051C150.153 7.11646 151.763 6.20479 153.496 6.21891C155.229 6.23303 156.823 7.17081 157.678 8.67898C157.812 8.91911 157.727 9.22279 157.488 9.3583C157.248 9.49382 156.944 9.41016 156.808 9.17117C156.13 7.97245 154.864 7.22677 153.486 7.21535C152.109 7.20393 150.831 7.9285 150.133 9.11582C149.436 10.3031 149.425 11.7726 150.105 12.97C150.17 13.0852 150.187 13.2217 150.152 13.3494C150.117 13.4771 150.032 13.5855 149.917 13.6507C149.842 13.6937 149.757 13.7163 149.67 13.7161Z" fill="black"/>
<path fill-rule="evenodd" clip-rule="evenodd" d="M328.694 235.944C329.252 237.293 330.568 238.173 332.028 238.173C334.021 238.171 335.636 236.556 335.639 234.564C335.639 233.104 334.76 231.787 333.411 231.228C332.062 230.669 330.509 230.978 329.477 232.01C328.444 233.042 328.135 234.595 328.694 235.944ZM329.419 234.563C329.419 233.122 330.587 231.954 332.028 231.953V231.953C333.469 231.955 334.637 233.123 334.639 234.564C334.639 236.005 333.47 237.173 332.029 237.173C330.587 237.173 329.419 236.005 329.419 234.563Z" fill="black"/>
<path fill-rule="evenodd" clip-rule="evenodd" d="M549.3 354.358C549.408 356.276 550.995 357.776 552.916 357.776C553.189 357.776 553.461 357.745 553.727 357.685C555.599 357.255 556.811 355.438 556.487 353.544C556.164 351.65 554.418 350.338 552.509 350.555C550.6 350.771 549.192 352.44 549.3 354.358ZM552.344 351.62C552.536 351.576 552.732 351.554 552.929 351.554C554.304 351.555 555.439 352.629 555.516 354.001C555.593 355.374 554.585 356.568 553.219 356.723C551.853 356.878 550.604 355.94 550.371 354.585C550.139 353.23 551.004 351.929 552.344 351.62Z" fill="black"/>
<path fill-rule="evenodd" clip-rule="evenodd" d="M457.199 5.35159C457.833 6.50125 459.04 7.21642 460.353 7.21944C460.626 7.21931 460.897 7.18852 461.163 7.12765C462.097 6.91729 462.909 6.34161 463.417 5.52901C464.475 3.84098 463.966 1.61422 462.279 0.553941C460.592 -0.506334 458.365 0.000902538 457.303 1.68722C456.605 2.79889 456.565 4.20193 457.199 5.35159ZM459.78 1.06319C459.972 1.01943 460.168 0.997156 460.365 0.996786C461.741 0.997686 462.877 2.07242 462.954 3.44628C463.031 4.82015 462.023 6.0155 460.656 6.17069C459.289 6.32588 458.038 5.38695 457.805 4.03072C457.573 2.67449 458.439 1.37246 459.78 1.06319Z" fill="black"/>
<path fill-rule="evenodd" clip-rule="evenodd" d="M343.685 54.4697C343.685 56.4637 345.301 58.0801 347.295 58.0801C349.288 58.0781 350.903 56.4629 350.905 54.4697C350.905 52.4758 349.289 50.8594 347.295 50.8594C345.301 50.8594 343.685 52.4758 343.685 54.4697ZM344.685 54.4697C344.685 53.0281 345.853 51.8594 347.295 51.8594C348.736 51.8609 349.904 53.0287 349.905 54.4697C349.905 55.9114 348.737 57.0801 347.295 57.0801C345.853 57.0801 344.685 55.9114 344.685 54.4697Z" fill="black"/>
<path fill-rule="evenodd" clip-rule="evenodd" d="M80.3307 405.664C80.8897 407.013 82.2063 407.893 83.6666 407.893C85.6595 407.89 87.2744 406.275 87.2765 404.282C87.2765 402.822 86.3968 401.506 85.0476 400.947C83.6985 400.388 82.1456 400.697 81.113 401.73C80.0805 402.762 79.7718 404.315 80.3307 405.664ZM81.2546 403.283C81.6588 402.308 82.6108 401.672 83.6666 401.672V401.672C85.1074 401.674 86.2749 402.842 86.2765 404.282C86.2765 405.338 85.6404 406.29 84.6649 406.694C83.6895 407.098 82.5667 406.875 81.8202 406.128C81.0736 405.381 80.8504 404.258 81.2546 403.283Z" fill="black"/>
<path d="M3.61002 245.712C2.31891 245.714 1.12495 245.027 0.478773 243.909C-0.167404 242.791 -0.167404 241.413 0.478773 240.295C1.12495 239.178 2.31891 238.49 3.61002 238.492C3.88616 238.492 4.11002 238.716 4.11002 238.992C4.11002 239.268 3.88616 239.492 3.61002 239.492C2.67639 239.49 1.81289 239.987 1.34555 240.796C0.878204 241.604 0.878204 242.6 1.34555 243.408C1.81289 244.217 2.67639 244.714 3.61002 244.712C3.88616 244.712 4.11002 244.936 4.11002 245.212C4.11002 245.488 3.88616 245.712 3.61002 245.712Z" fill="black"/>
<path d="M23.1701 454.951C21.828 454.949 20.5977 454.203 19.976 453.014C19.3543 451.824 19.444 450.388 20.2087 449.285C20.3662 449.058 20.6777 449.002 20.9045 449.16C21.1313 449.317 21.1875 449.629 21.03 449.855C20.2128 451.04 20.5089 452.663 21.692 453.483C22.8751 454.303 24.4985 454.01 25.321 452.829C25.4226 452.682 25.5953 452.6 25.7738 452.614C25.9523 452.629 26.1093 452.738 26.1854 452.9C26.2615 453.062 26.2451 453.253 26.1423 453.399C25.4665 454.373 24.3556 454.953 23.1701 454.951Z" fill="black"/>
<path fill-rule="evenodd" clip-rule="evenodd" d="M368.757 438.508C369.316 439.857 370.633 440.736 372.093 440.736C374.086 440.735 375.701 439.119 375.703 437.126C375.703 435.666 374.824 434.349 373.475 433.791C372.125 433.232 370.573 433.541 369.54 434.573C368.507 435.606 368.199 437.159 368.757 438.508ZM369.681 436.127C370.085 435.152 371.037 434.516 372.093 434.516C373.534 434.517 374.702 435.685 374.703 437.126C374.703 438.182 374.067 439.134 373.092 439.538C372.116 439.942 370.994 439.718 370.247 438.972C369.501 438.225 369.277 437.103 369.681 436.127Z" fill="black"/>
<path fill-rule="evenodd" clip-rule="evenodd" d="M63.6748 35.2038C63.6749 37.1974 65.2911 38.8135 67.2847 38.8135C69.2775 38.8111 70.8924 37.196 70.8945 35.2031C70.8943 33.2095 69.2779 31.5936 67.2843 31.5938C65.2907 31.5939 63.6747 33.2102 63.6748 35.2038ZM64.8734 34.205C65.2773 33.2297 66.229 32.5938 67.2847 32.5938C68.7251 32.5955 69.8925 33.7626 69.8945 35.2031C69.8947 36.2588 69.259 37.2106 68.2838 37.6147C67.3085 38.0188 66.1859 37.7956 65.4394 37.0492C64.6929 36.3029 64.4695 35.1803 64.8734 34.205Z" fill="black"/>
<path d="M251.516 170.077C266.29 172.358 280.787 172.776 287.584 172.211C295.893 171.52 302.104 171.116 306.664 164.155C309.779 159.402 308.617 150.132 300.802 139.736C292.307 128.435 260.258 88.8019 246.93 79.5845C245.825 78.7775 244.303 75.6063 243.033 74.07C241.64 72.3865 238.828 70.8419 238.173 70.9949L240.532 81.0163L240.846 84.8639C258.388 104.741 281.534 136.621 285.417 142.17C290.05 148.789 286.377 151.514 273.768 151.064C267.608 150.481 261.485 149.547 255.431 148.266L251.516 170.077Z" fill="white"/>
<path d="M251.383 170.555C260.112 171.902 268.918 172.684 277.747 172.898C283.866 173.03 290.273 172.961 296.278 171.654C301.307 170.56 306.359 167.394 308.108 162.297C310 156.783 307.749 150.434 305.143 145.556C302.777 141.129 299.533 137.208 296.435 133.277C293.192 129.161 289.902 125.083 286.565 121.042C278.655 111.436 270.574 101.942 262.018 92.9027C258.288 88.8358 254.316 84.9975 250.124 81.4089C249.382 80.7935 248.617 80.2111 247.85 79.6269C246.503 78.411 245.384 76.9645 244.546 75.3553C243.256 73.3585 240.794 70.5275 238.173 70.4922C238.018 70.4945 237.872 70.5678 237.778 70.6912C237.684 70.8146 237.652 70.9743 237.691 71.1244L239.569 79.1022C239.786 79.9296 239.957 80.7682 240.081 81.6142C240.209 82.6892 239.995 84.1166 240.414 85.1128C240.799 86.0287 242.077 87.022 242.731 87.7801C243.498 88.6684 244.261 89.5605 245.019 90.4564C246.753 92.5047 248.469 94.5684 250.166 96.6477C253.676 100.939 257.131 105.274 260.53 109.654C266.627 117.479 272.607 125.394 278.469 133.399C280.254 135.831 282.026 138.273 283.785 140.724C285.116 142.588 287.825 145.579 286.547 147.984C285.532 149.894 282.378 150.225 280.517 150.42C277.327 150.717 274.114 150.671 270.934 150.283C265.771 149.718 260.64 148.883 255.564 147.781C255.298 147.711 255.025 147.866 254.949 148.13L251.034 169.941C250.922 170.57 251.884 170.839 251.998 170.207L253.693 160.762L254.962 153.693C255.211 152.304 255.938 150.385 255.809 148.974C255.715 147.945 255.979 149.065 255.426 148.772C256.237 149.048 257.08 149.219 257.935 149.28C261.627 149.994 265.343 150.597 269.075 151.062C273.063 151.659 277.111 151.756 281.123 151.35C282.949 151.121 285.095 150.766 286.542 149.515C289.277 147.148 287.008 143.559 285.393 141.267C283.048 137.94 280.633 134.659 278.219 131.382C269.962 120.174 261.524 109.09 252.766 98.2689C250.15 95.0371 247.497 91.8367 244.805 88.6674C243.829 87.5231 241.989 86.09 241.339 84.785C240.931 83.9656 241.175 82.3706 241.067 81.4562C240.65 77.9028 239.474 74.343 238.654 70.8589L238.173 71.4911C241.619 71.5375 243.693 76.1043 245.337 78.4671C246.427 79.7746 247.699 80.9189 249.114 81.8649C252.49 84.7015 255.704 87.7271 258.738 90.9271C266.638 99.0391 274.058 107.626 281.331 116.299C287.375 123.507 293.337 130.796 299.061 138.262C305.747 146.982 314.066 163.258 299.737 169.527C293.819 172.116 286.313 171.976 279.944 171.931C270.469 171.828 261.013 171.047 251.649 169.592C251.02 169.497 250.749 170.459 251.383 170.555Z" fill="black"/>
<path d="M206.781 127.167C205.503 123.703 205.989 111.107 212.299 108.413C216.211 106.743 223.216 110.898 228.36 110.543C235.513 110.049 236.579 103.252 238.409 98.4597C238.625 97.8944 238.879 96.8209 240.073 96.9351C240.939 97.018 241.538 97.1441 242.405 97.2291C246.056 97.5874 247.495 94.339 245.631 92.1956C244.569 91.2952 243.209 90.8223 241.818 90.8688C241.423 90.8558 241.053 90.6771 240.797 90.3766C240.541 90.0761 240.424 89.6817 240.475 89.2904C241.003 84.83 240.742 80.3115 239.704 75.9416C238.025 67.6983 232.963 64.9784 227.468 64.9844C222.796 64.9895 216.096 68.4729 212.005 78.2301C207.934 87.9429 202.545 112.248 197.605 120.033C196.691 121.379 195.707 122.677 194.657 123.921C196.281 125.779 198.392 127.145 200.752 127.864C204.739 129.046 206.781 127.167 206.781 127.167Z" fill="white"/>
<path fill-rule="evenodd" clip-rule="evenodd" d="M200.61 128.343C201.478 128.609 202.379 128.748 203.286 128.756C204.669 128.817 206.028 128.384 207.12 127.534L207.367 127.307L207.251 126.993C206.026 123.677 206.463 111.448 212.496 108.873C214.502 108.017 217.503 108.847 220.678 109.726L220.679 109.727L220.704 109.733C223.321 110.459 226.025 111.208 228.396 111.042C234.813 110.599 236.555 105.43 238.092 100.87L238.092 100.869L238.11 100.817C238.364 100.066 238.612 99.3306 238.876 98.6377L238.944 98.4531C239.218 97.6865 239.431 97.3672 240.025 97.4326C240.455 97.4736 240.818 97.5254 241.182 97.5781C241.55 97.6308 241.92 97.6835 242.356 97.7265C244.031 98.0312 245.718 97.2573 246.579 95.789C247.227 94.491 247 92.9269 246.009 91.8672C244.997 90.7032 242.901 90.377 241.821 90.3682C241.584 90.3656 241.359 90.2614 241.204 90.082C241.026 89.8805 240.942 89.6129 240.972 89.3457C241.508 84.8336 241.244 80.2625 240.194 75.8418C238.282 66.457 232.232 64.4844 227.486 64.4844H227.468C222.741 64.4893 215.735 68.041 211.545 78.0361C209.893 81.9775 208.038 88.2598 206.075 94.9111C203.271 104.411 200.094 115.178 197.183 119.765C196.282 121.089 195.314 122.367 194.282 123.592L194.007 123.905L194.266 124.231C195.95 126.174 198.15 127.599 200.61 128.343ZM200.895 127.384C198.769 126.725 196.849 125.53 195.319 123.915V123.915C196.134 122.933 197.488 121.15 198.027 120.3C201.013 115.595 204.074 105.224 207.034 95.1944L207.034 95.1933C208.989 88.5697 210.836 82.3133 212.467 78.4229C216.467 68.8799 223.049 65.4893 227.469 65.4844H227.485C231.859 65.4844 237.438 67.3184 239.214 76.0411C240.241 80.3599 240.5 84.8259 239.978 89.2344C239.916 89.7829 240.09 90.3319 240.456 90.7452C240.798 91.1383 241.292 91.3653 241.813 91.3682C243.063 91.322 244.286 91.7327 245.254 92.5234C245.971 93.2762 246.145 94.3951 245.69 95.3301C245.01 96.427 243.719 96.9855 242.454 96.7305C242.034 96.6895 241.678 96.6387 241.323 96.5879C240.945 96.5332 240.568 96.4795 240.121 96.4365C239.091 96.3781 238.18 97.1 238.002 98.1162L237.942 98.2803C237.672 98.9881 237.418 99.7403 237.159 100.508L237.145 100.55C235.637 105.022 234.079 109.646 228.327 110.044C226.114 110.192 223.489 109.468 220.946 108.764C217.598 107.835 214.434 106.959 212.103 107.953C205.637 110.713 205.001 122.922 206.195 126.982C205.576 127.39 203.813 128.249 200.895 127.384Z" fill="black"/>
<path d="M244.612 571.525C244.354 573.508 242.662 574.99 240.662 574.985H233.972C232.898 574.985 231.869 574.55 231.12 573.78C230.37 573.01 229.964 571.969 229.992 570.895C231.792 495.715 212.472 416.015 188.252 351.785C187.632 420.795 170.462 551.295 165.442 569.475C164.702 571.655 164.012 575.245 160.362 575.225C157.641 575.2 154.926 574.96 152.242 574.505C148.612 573.925 149.252 569.205 149.542 567.125C156.292 505.925 147.252 452.355 142.472 388.585C140.922 367.865 132.582 344.975 132.582 344.975C124.502 323.645 119.712 308.555 119.272 287.945C129.422 297.855 164.792 300.575 180.082 300.355C190.492 300.205 218.982 302.195 233.202 294.465C246.712 351.825 248.352 383.775 250.342 450.155C251.302 482.085 249.182 535.415 244.612 571.525Z" fill="white"/>
<path d="M244.13 571.392C243.418 574.757 240.42 574.485 237.793 574.485C235.521 574.485 232.389 575.031 231.063 572.737C230.046 570.978 230.55 568.357 230.575 566.379C230.602 564.266 230.613 562.153 230.608 560.04C230.597 555.95 230.528 551.86 230.401 547.77C229.858 531.118 228.477 514.503 226.264 497.989C221.841 465.358 214.891 433.12 205.478 401.565C200.513 384.728 194.932 368.091 188.735 351.652C188.662 351.418 188.431 351.271 188.187 351.304C187.944 351.336 187.76 351.54 187.753 351.785C187.449 383.514 184.666 415.245 181.527 446.8C178.464 477.574 174.851 508.32 170.326 538.916C169.012 547.801 167.712 556.723 165.86 565.516C165.616 566.675 165.373 567.841 165.057 568.983C164.761 570.275 164.301 571.523 163.689 572.698C162.083 575.436 158.745 574.767 156.044 574.504C153.26 574.233 150.278 574.257 149.854 570.868C149.773 568.982 149.904 567.092 150.246 565.235C150.851 559.488 151.328 553.729 151.677 547.959C154.436 502.595 149.009 457.403 144.947 412.293C143.929 400.987 143.54 389.522 141.729 378.308C140.224 369.305 138.088 360.418 135.337 351.714C133.502 345.796 131.218 340.057 129.153 334.218C125.548 324.495 122.867 314.455 121.147 304.229C120.344 298.835 119.885 293.397 119.772 287.945L118.919 288.299C123.611 292.751 130.495 294.729 136.614 296.248C144.855 298.195 153.237 299.485 161.682 300.108C168.6 300.695 175.489 300.808 182.424 300.851C190.37 300.899 198.306 301.132 206.247 300.7C215.392 300.203 225.234 299.255 233.455 294.897L232.72 294.598C236.853 312.182 240.465 329.893 243.028 347.778C245.427 364.516 246.877 381.366 247.824 398.244C249.91 435.374 250.717 472.52 249.033 509.68C248.097 530.333 246.693 551.006 244.112 571.525C244.032 572.162 245.033 572.156 245.112 571.525C249.682 535.189 251.331 498.222 251.05 461.613C250.903 442.525 250.104 423.404 249.148 404.341C248.296 387.345 247.025 370.367 244.812 353.49C242.097 333.597 238.383 313.853 233.685 294.332C233.641 294.184 233.533 294.064 233.39 294.005C233.246 293.947 233.085 293.958 232.95 294.034C225.492 297.987 216.618 299.012 208.319 299.574C200.458 300.107 192.582 299.981 184.71 299.876C170.076 299.679 155.566 299.228 141.167 296.254C133.908 294.755 125.188 292.869 119.626 287.592C119.481 287.455 119.269 287.415 119.084 287.492C118.9 287.568 118.778 287.746 118.772 287.945C119.024 298.465 120.543 308.916 123.298 319.071C125.759 328.144 129.164 336.859 132.311 345.702C134.558 352.113 136.47 358.636 138.042 365.245C140.782 376.527 141.866 387.798 142.823 399.338C146.708 446.179 153.046 493.028 151.078 540.132C150.833 546.002 150.461 551.864 149.963 557.72C149.722 560.542 149.458 563.364 149.146 566.18C148.831 567.894 148.756 569.643 148.922 571.378C149.528 574.975 152.543 575.135 155.647 575.462C159.358 575.854 163.113 576.398 164.904 572.51C166.212 569.672 166.724 566.384 167.317 563.337C168.144 559.082 168.859 554.806 169.547 550.527C174.2 521.568 177.695 492.4 180.825 463.242C184.43 429.66 187.579 395.926 188.551 362.151C188.651 358.697 188.718 355.241 188.753 351.785L187.77 351.918C199.872 383.926 209.606 416.779 216.893 450.213C224.502 485.385 229.27 521.302 229.592 557.318C229.613 559.736 229.614 562.153 229.594 564.57C229.575 566.847 229.194 569.373 229.54 571.621C229.906 573.871 231.864 575.514 234.143 575.485C237.948 575.696 244.062 576.537 245.095 571.658C245.228 571.03 244.264 570.762 244.13 571.392Z" fill="black"/>
<path d="M242.955 574.79C242.636 577.834 244.488 581.591 246.223 584.113C247.743 586.282 249.97 587.855 252.524 588.561C255.276 589.286 258.11 589.657 260.956 589.665C263.209 589.671 265.565 589.547 267.576 590.563C269.035 591.281 270.149 592.548 270.675 594.086C271.253 595.724 270.608 598.018 268.882 598.207C267.313 598.378 265.069 598.482 264.08 598.482C254.204 598.794 247.694 598.529 239.085 598.311C238.608 598.351 238.132 598.227 237.735 597.958C237.215 597.506 237.268 596.703 237.297 596.015C237.409 595.012 237.156 594.002 236.583 593.17C235.958 592.34 234.789 592.151 233.933 592.74C232.583 593.927 233.69 597.501 232 598.114C231.726 598.214 228.672 598.145 226.782 598.069C226.037 598.037 225.43 597.458 225.364 596.714C225.006 592.826 225.324 587.931 227.065 584.551C227.931 582.871 229.229 581.45 230.173 579.812C231.223 578.322 231.767 576.534 231.723 574.711L242.955 574.79Z" fill="black"/>
<path d="M162.075 575.021C161.757 578.064 163.608 581.822 165.343 584.343C166.863 586.513 169.091 588.085 171.644 588.791C174.396 589.516 177.23 589.887 180.076 589.895C182.329 589.901 184.685 589.777 186.696 590.793C188.155 591.511 189.269 592.778 189.795 594.317C190.373 595.954 189.728 598.248 188.002 598.437C186.433 598.609 184.189 598.712 183.2 598.712C173.324 599.024 166.814 598.759 158.206 598.541C157.728 598.582 157.252 598.457 156.856 598.188C156.336 597.736 156.388 596.934 156.417 596.245C156.529 595.242 156.276 594.232 155.703 593.401C155.078 592.571 153.909 592.381 153.053 592.97C151.703 594.157 152.81 597.731 151.12 598.344C150.846 598.444 147.793 598.376 145.903 598.299C145.157 598.268 144.55 597.688 144.485 596.945C144.126 593.056 144.444 588.161 146.185 584.781C147.051 583.101 148.349 581.68 149.293 580.043C150.359 578.206 150.91 576.116 150.889 573.992L156.128 575.234L162.075 575.021Z" fill="black"/>
<circle cx="234.019" cy="85.8749" r="1.35151" fill="black"/>
<path d="M229.843 81.9744C230.273 80.9925 231.08 80.2248 232.083 79.844C233.085 79.4631 234.198 79.5011 235.172 79.9494C236.067 80.3107 236.456 78.8604 235.571 78.503C232.88 77.3876 229.789 78.5826 228.548 81.2173C228.13 82.0828 229.423 82.8444 229.843 81.9744V81.9744Z" fill="black"/>
<path d="M214.471 79.9929C214.002 79.1025 213.104 78.52 212.1 78.4555C209.758 78.2201 208.029 80.3606 207.573 81.1692C206.789 82.6223 206.414 84.2613 206.49 85.9107C206.521 87.5374 207.345 89.0465 208.696 89.9531C210.062 90.7828 212.891 91.0579 214.024 89.3963L214.471 79.9929Z" fill="white"/>
<path d="M214.903 79.7389C213.887 77.7884 211.359 77.553 209.568 78.5295C207.516 79.794 206.206 81.9759 206.054 84.3813C205.776 86.7934 206.496 89.4646 208.85 90.5947C210.676 91.5673 212.925 91.2229 214.377 89.7482C214.795 89.2623 214.09 88.5518 213.67 89.0411C212.528 90.2021 210.755 90.4664 209.324 89.6891C207.134 88.6571 206.736 86.0802 207.121 83.9437C207.306 82.7337 207.806 81.5936 208.57 80.6375C209.828 79.168 212.776 77.8179 214.039 80.2436C214.336 80.8146 215.2 80.3096 214.903 79.7389V79.7389Z" fill="black"/>
<path d="M212.637 81.4157C211.347 80.9786 209.92 81.385 209.053 82.4366C208.208 83.452 207.947 84.8315 208.361 86.0858C208.576 86.6877 209.543 86.4283 209.326 85.82C208.965 84.9175 209.144 83.8888 209.788 83.1611C210.432 82.4334 211.432 82.1312 212.371 82.38C212.634 82.4425 212.898 82.2861 212.97 82.0262C213.042 81.7663 212.894 81.4963 212.637 81.4157V81.4157Z" fill="black"/>
<path d="M243.671 70.5744C242.129 70.9496 240.548 71.1409 238.961 71.1444C229.491 71.4244 220.511 72.0443 211.501 78.1744C208.806 75.0826 207.67 70.9306 208.414 66.8977C209.158 62.8647 211.701 59.3914 215.321 57.4644C215.054 57.1407 214.909 56.7338 214.911 56.3144C214.906 55.301 215.713 54.4704 216.727 54.4459C217.74 54.4214 218.586 55.212 218.631 56.2244C224.617 54.8744 230.759 57.7399 233.571 63.1944C235.771 63.5644 237.971 63.9444 240.171 64.3144C241.214 64.4506 242.246 64.6577 243.261 64.9344C244.651 65.3544 246.021 66.0944 246.171 67.2344C246.381 68.9044 245.521 70.0043 243.671 70.5744Z" fill="black"/>
<path d="M230.232 101.295C231.108 101.211 231.973 101.538 232.575 102.18C232.988 102.581 233.886 104.096 232.586 104.06C232.07 104.046 231.439 103.491 231.026 103.22C230.472 102.856 228.815 101.798 230.232 101.295C230.834 101.081 230.574 100.114 229.966 100.33C229.333 100.506 228.858 101.032 228.747 101.68C228.636 102.327 228.909 102.981 229.448 103.357C230.34 104.068 231.819 105.278 233.046 105.042C234.403 104.781 234.483 103.234 233.895 102.226C233.078 100.87 231.536 100.126 229.966 100.33C229.333 100.442 229.601 101.405 230.232 101.295Z" fill="black"/>
<path d="M219.453 180.386C219.272 178.582 219.86 176.785 221.072 175.436C222.284 174.088 224.008 173.312 225.821 173.3C226.88 173.323 227.936 173.406 228.984 173.548C234.242 174.167 238.227 175.489 243.467 176.588C247.839 177.504 249.939 176.47 250.726 173.683C252.254 168.27 254.69 155.667 255.926 151.116C256.508 148.974 257.621 145.125 255.162 142.597C253.965 141.367 251.674 140.683 250.032 140.183C236.197 136.116 222.6 131.279 209.305 125.695C208.897 125.527 208.43 125.576 208.066 125.828C206.53 126.864 203.46 128.142 200.841 127.081C197.421 125.695 195.792 124.33 194.623 122.689C194.398 122.369 194.043 122.164 193.653 122.13C193.263 122.096 192.878 122.237 192.602 122.515C186.516 128.722 177.264 135.03 170.045 141.242C126.09 176.952 107.212 236.545 116.783 284.063C120.645 297.16 162.958 300.607 180.084 300.362C192.114 300.191 228.274 302.869 238.685 290.108C249.431 277.427 247.779 260.023 242.983 242.579C237.379 222.195 221.413 201.433 219.453 180.386Z" fill="black"/>
<path d="M174.543 247.803C178.639 254.53 183.12 261.808 188.252 269.729C193.643 278.051 208.148 296.068 216.326 301.674C225.593 308.028 252.79 317.683 291.008 319.204C294.915 319.683 296.456 320.151 305.543 326.731C309.263 329.425 316.744 332.271 320.922 332.596L330.338 333.708C331.696 333.814 337.019 334.357 338.643 333.744C339.625 333.471 340.156 331.25 335.962 330.831C323.453 329.581 323.92 327.648 323.92 327.648C324.076 326.588 327.48 327.17 328.536 327.281C332.108 327.657 334.524 327.814 337.983 328.232C340.665 328.555 342.949 328.819 343.187 327.227C343.248 326.303 342.779 325.86 340.973 325.639C335.896 325.016 331.423 324.635 326.385 323.749C325.577 323.592 325.108 322.68 325.684 322.115C326.724 321.195 338.373 323.402 342.201 323.744C342.801 323.798 344.028 323.856 344.377 322.863C344.51 322.468 344.469 322.035 344.265 321.671C344.06 321.308 343.711 321.049 343.303 320.958C342.308 320.694 340.415 320.403 339.27 320.232C334.885 319.579 330.654 319.379 326.251 318.87C325.892 318.854 325.595 318.584 325.545 318.228C325.496 317.872 325.707 317.531 326.048 317.418C327.185 317.122 334.977 317.954 338.84 318.122C339.553 318.185 340.268 318.035 340.896 317.692C342.015 317.12 341.838 315.773 340.865 315.037C340.257 314.724 339.592 314.536 338.91 314.484C332.722 313.589 321.392 313.691 315.846 312.775C315.548 312.725 315.332 312.466 315.335 312.164C315.339 311.863 315.561 311.609 315.859 311.565C318.061 311.245 319.7 311.508 322.84 311.033C325.675 310.603 326.543 310.135 326.448 309.186C326.319 307.898 324.581 307.763 323.961 307.707C321.522 307.526 319.071 307.61 316.65 307.957C314.587 308.208 312.275 308.734 309.944 309.229C305.111 310.255 299.296 308.566 293.071 307.173C266.313 300.482 241.977 289.328 234.117 283.508C224.77 276.587 218.684 266.207 213.26 255.92C209.237 248.292 205.583 241.004 202.205 233.773L174.543 247.803Z" fill="white"/>
<path fill-rule="evenodd" clip-rule="evenodd" d="M330.853 334.253C332.614 334.403 334.453 334.534 335.968 334.534C336.915 334.58 337.863 334.476 338.777 334.226C339.458 334.012 339.896 333.351 339.828 332.641C339.777 332.057 339.304 330.662 336.012 330.334C326.32 329.365 324.707 328.016 324.455 327.69C324.655 327.54 325.401 327.393 327.982 327.718C328.179 327.743 328.35 327.765 328.484 327.778C329.939 327.932 331.202 328.049 332.421 328.161L332.477 328.166C334.234 328.329 335.899 328.484 337.923 328.727L337.924 328.728C340.724 329.066 343.369 329.387 343.686 327.261C343.784 325.785 342.697 325.347 341.034 325.143C339.73 324.982 338.466 324.839 337.222 324.698L336.862 324.657C333.373 324.264 330.077 323.892 326.479 323.258C326.235 323.215 326.031 323.046 325.946 322.813C325.905 322.708 325.925 322.589 325.998 322.503C326.778 322.044 332.984 322.959 336.74 323.513L336.802 323.522C339.025 323.851 340.945 324.134 342.156 324.242C343.619 324.374 344.519 323.964 344.848 323.029C345.026 322.517 344.981 321.953 344.726 321.475C344.455 320.973 343.985 320.61 343.431 320.475C342.678 320.275 341.341 320.034 339.343 319.738C336.717 319.347 334.101 319.114 331.571 318.888L331.534 318.885L331.499 318.882C329.807 318.731 328.057 318.576 326.317 318.375C326.168 318.374 326.046 318.259 326.037 318.11C326.022 318.015 326.081 317.925 326.174 317.901C328.6 317.869 331.024 317.986 333.435 318.252C335.375 318.403 337.38 318.559 338.818 318.622C339.617 318.685 340.417 318.517 341.124 318.138C341.707 317.866 342.101 317.305 342.16 316.664C342.195 315.864 341.821 315.101 341.168 314.639C340.496 314.261 339.749 314.039 338.981 313.989C335.926 313.548 331.604 313.346 327.423 313.15L327.389 313.149C323.125 312.949 318.721 312.743 315.927 312.281C315.9 312.28 315.874 312.268 315.857 312.247C315.839 312.226 315.831 312.198 315.835 312.171C315.832 312.143 315.84 312.115 315.859 312.094C315.877 312.073 315.904 312.06 315.932 312.06C316.846 311.941 317.766 311.877 318.688 311.867C320.103 311.846 321.515 311.733 322.916 311.526C325.216 311.179 327.107 310.759 326.945 309.136C326.778 307.46 324.718 307.273 324.006 307.209C321.532 307.025 319.045 307.109 316.589 307.461C314.783 307.681 312.838 308.097 310.78 308.538L310.777 308.539L309.84 308.739C305.776 309.603 300.888 308.468 295.715 307.267L295.692 307.262C294.863 307.068 294.025 306.874 293.192 306.687C265.453 299.752 241.72 288.516 234.414 283.106C224.946 276.095 218.759 265.276 213.702 255.687C209.522 247.761 205.91 240.523 202.659 233.562L202.44 233.094L173.835 247.603L174.116 248.063C178.154 254.695 182.611 261.942 187.833 270.001C193.07 278.085 207.758 296.407 216.043 302.087C221.415 305.77 231.124 309.65 242.681 312.734C258.471 316.796 274.654 319.131 290.948 319.7C294.716 320.162 296.205 320.587 305.25 327.137C309.021 329.867 316.619 332.764 320.864 333.093L330.299 334.206L330.853 334.253ZM188.671 269.458C183.578 261.596 179.211 254.504 175.251 248.005L201.971 234.453C205.173 241.286 208.724 248.391 212.817 256.153C217.926 265.841 224.183 276.773 233.819 283.909C241.189 289.367 265.079 300.689 292.961 307.661C293.715 307.83 294.463 308.003 295.203 308.175L295.465 308.235L295.479 308.238C300.769 309.467 305.766 310.627 310.047 309.718L310.986 309.517C313.023 309.08 314.947 308.668 316.71 308.453C319.108 308.111 321.536 308.029 323.952 308.208C324.842 308.289 325.874 308.479 325.951 309.235C325.99 309.626 325.779 310.082 322.765 310.538C321.405 310.739 320.033 310.849 318.658 310.867C317.698 310.878 316.739 310.946 315.788 311.07C315.245 311.149 314.841 311.611 314.835 312.159C314.83 312.707 315.224 313.177 315.764 313.268C319.618 313.756 323.493 314.05 327.376 314.149L327.41 314.151C331.556 314.345 335.84 314.545 338.863 314.982C339.452 315.032 340.028 315.185 340.564 315.436C340.94 315.693 341.165 316.12 341.164 316.576C341.133 316.873 340.943 317.13 340.668 317.247C340.118 317.554 339.488 317.684 338.861 317.622C337.441 317.561 335.444 317.405 333.513 317.255C329.287 316.927 326.668 316.74 325.922 316.934C325.367 317.078 324.995 317.599 325.039 318.171C325.076 318.8 325.566 319.308 326.193 319.367C327.966 319.572 329.735 319.73 331.446 319.881C333.973 320.106 336.585 320.338 339.197 320.727L339.227 320.731C339.977 320.843 342.125 321.163 343.175 321.441C343.459 321.505 343.702 321.687 343.842 321.942C343.966 322.175 343.988 322.448 343.905 322.697C343.742 323.159 343.212 323.336 342.246 323.246C341.062 323.141 339.064 322.846 336.948 322.533C329.4 321.42 326.116 321.062 325.333 321.759C324.973 322.105 324.839 322.626 324.988 323.103C325.182 323.694 325.685 324.131 326.297 324.241C329.911 324.878 333.203 325.25 336.683 325.644L336.75 325.651L336.884 325.667C338.198 325.815 339.533 325.966 340.913 326.135C342.741 326.359 342.716 326.764 342.693 327.152L342.693 327.153C342.537 328.199 340.751 328.063 338.042 327.735C336.003 327.489 334.33 327.334 332.565 327.171L332.513 327.166L332.312 327.147C331.158 327.04 329.959 326.928 328.589 326.784L328.107 326.726L328.101 326.725C326.321 326.501 323.633 326.164 323.434 327.531C323.39 327.782 323.457 328.039 323.618 328.236C324.548 329.549 328.8 330.618 335.913 331.328C337.996 331.537 338.787 332.212 338.831 332.727C338.856 332.973 338.703 333.203 338.466 333.276C337.122 333.783 332.628 333.4 330.938 333.256L320.961 332.099C316.84 331.777 309.49 328.973 305.835 326.326C296.591 319.632 295.037 319.193 291.028 318.704C252.877 317.186 225.621 307.441 216.608 301.263C208.426 295.653 193.871 277.482 188.671 269.458Z" fill="black"/>
<path d="M153.011 223.598C157.561 231.068 161.891 238.738 166.694 246.048C168.163 248.285 169.99 249.744 172.794 249.366C176.198 248.907 179.602 246.755 182.644 245.279C186.295 243.506 189.902 241.646 193.464 239.696C196.387 238.097 200.122 236.592 202.398 234.074C204.609 231.629 203.682 228.847 202.702 226.05C201.245 221.892 199.781 217.737 198.31 213.584L188.387 185.42C188.174 184.818 187.208 185.077 187.423 185.686L196.857 212.465C198.484 217.082 200.123 221.695 201.738 226.316C202.724 229.138 203.519 231.874 200.938 234.096C199.211 235.396 197.362 236.526 195.417 237.47C191.606 239.612 187.741 241.652 183.821 243.591C181.722 244.63 179.609 245.638 177.481 246.616C174.837 247.832 171.508 249.616 168.901 247.274C167.264 245.803 166.228 243.373 165.106 241.531L161.532 235.664L153.874 223.093C153.54 222.544 152.675 223.046 153.011 223.598L153.011 223.598Z" fill="white"/>
<path d="M184.06 313.852C188.122 327.787 188.252 351.792 188.252 351.792C188.252 351.792 196.603 348.309 194.316 325.177" stroke="black" stroke-linecap="round" stroke-dasharray="6"/>
<path d="M124.77 298.984C144.765 306.18 165.926 309.588 187.17 309.033C220.166 308.053 222.262 305.204 222.262 305.204" stroke="black" stroke-linecap="round" stroke-dasharray="6"/>
<path fill-rule="evenodd" clip-rule="evenodd" d="M155.291 569.064C155.314 569.067 155.337 569.068 155.36 569.069H155.36C155.623 569.068 155.841 568.865 155.859 568.603C155.877 568.341 155.689 568.11 155.429 568.073C153.484 567.829 151.575 567.356 149.742 566.664C149.488 566.558 149.196 566.676 149.088 566.929C148.98 567.183 149.097 567.475 149.35 567.584C151.263 568.316 153.258 568.813 155.291 569.064ZM158.325 569.341C158.794 569.362 159.276 569.373 159.772 569.373C161.321 569.373 162.869 569.263 164.402 569.042C164.579 569.017 164.729 568.899 164.795 568.733C164.862 568.567 164.835 568.378 164.724 568.238C164.614 568.097 164.437 568.026 164.26 568.052C162.309 568.328 160.337 568.426 158.369 568.343C158.095 568.334 157.864 568.546 157.848 568.82C157.842 568.952 157.889 569.081 157.978 569.179C158.068 569.277 158.193 569.335 158.325 569.341Z" fill="black"/>
<path fill-rule="evenodd" clip-rule="evenodd" d="M235.602 569.184C235.617 569.185 235.631 569.186 235.646 569.186V569.186C235.913 569.185 236.132 568.974 236.143 568.707C236.155 568.44 235.954 568.211 235.688 568.188C233.734 568.045 231.803 567.672 229.936 567.077C229.676 566.983 229.389 567.116 229.294 567.375C229.199 567.635 229.333 567.922 229.592 568.017C231.541 568.647 233.559 569.039 235.602 569.184ZM238.14 568.804C238.141 569.08 238.366 569.303 238.642 569.302H238.646C240.679 569.285 242.705 569.079 244.7 568.685C244.97 568.631 245.147 568.368 245.093 568.098C245.039 567.827 244.777 567.651 244.506 567.704C242.573 568.086 240.608 568.286 238.638 568.302C238.362 568.303 238.139 568.528 238.14 568.804Z" fill="black"/>
<path d="M432.171 558.686C429.731 566.946 424.521 581.636 422.071 589.896C421.921 590.416 421.741 591.046 421.531 591.726C421.08 593.527 420.351 595.248 419.371 596.826C418.411 597.956 416.984 598.58 415.503 598.518C414.021 598.455 412.652 597.713 411.791 596.506C410.621 594.646 411.261 590.996 411.731 588.886C411.861 588.286 411.971 587.806 412.031 587.536C414.731 575.286 418.351 558.516 421.051 546.266L432.171 558.686Z" fill="white"/>
<path fill-rule="evenodd" clip-rule="evenodd" d="M415.461 599.017C415.566 599.022 415.67 599.025 415.774 599.025C417.324 599.043 418.795 598.346 419.763 597.135C420.802 595.519 421.561 593.739 422.008 591.871C422.217 591.194 422.397 590.567 422.55 590.036C423.763 585.947 425.688 580.172 427.552 574.587L427.562 574.556C429.459 568.869 431.42 562.99 432.65 558.825L432.729 558.558L420.772 545.203L420.562 546.156C419.212 552.281 417.632 559.537 416.052 566.793L415.989 567.082C414.43 574.24 412.874 581.383 411.542 587.427L411.242 588.775C410.38 592.649 410.421 595.265 411.367 596.77C412.297 598.126 413.817 598.96 415.461 599.017ZM417.305 565.741C418.711 559.284 420.106 552.879 421.329 547.324L431.612 558.81C430.38 562.947 428.461 568.702 426.603 574.271C424.737 579.863 422.809 585.648 421.585 589.771L421.579 589.792C421.432 590.303 421.257 590.916 421.052 591.579C420.6 593.314 419.902 594.975 418.98 596.513C418.148 597.559 416.85 598.123 415.518 598.018C414.199 597.973 412.976 597.314 412.214 596.237C411.426 594.984 411.428 592.547 412.219 588.989L412.519 587.642C413.869 581.517 415.449 574.261 417.029 567.006L417.029 567.005C417.121 566.583 417.213 566.162 417.305 565.741Z" fill="black"/>
<path d="M456.151 569.18C453.491 577.42 451.331 586.14 449.381 592.71C449.181 593.38 448.891 594.44 448.521 595.63C447.851 597.83 446.901 600.46 445.781 601.77C443.871 604.02 439.611 602.86 438.431 600.78C437.371 598.93 437.681 596.14 437.971 594.49C438.051 594.09 438.121 593.76 438.171 593.53C439.941 585.51 441.961 575.86 444.111 565.75L456.151 569.18Z" fill="white"/>
<path fill-rule="evenodd" clip-rule="evenodd" d="M442.298 603.472C442.491 603.489 442.679 603.499 442.865 603.499C444.118 603.549 445.327 603.035 446.161 602.099C447.117 600.98 448.044 598.913 448.999 595.781C449.238 595.009 449.445 594.292 449.616 593.699L449.626 593.666L449.861 592.855C450.596 590.377 451.361 587.597 452.171 584.652C453.483 579.877 454.971 574.464 456.627 569.336L456.786 568.844L443.733 565.125L442.039 573.112C440.482 580.464 439.01 587.408 437.683 593.427C437.632 593.658 437.562 593.991 437.479 594.406C436.968 597.31 437.143 599.539 437.997 601.03C438.978 602.463 440.565 603.364 442.298 603.472ZM443.017 573.319L444.489 566.381L455.517 569.521C453.925 574.503 452.491 579.714 451.221 584.333L451.206 584.388C450.398 587.326 449.634 590.103 448.902 592.569L448.664 593.39C448.494 593.983 448.286 594.706 448.043 595.487C447.528 597.618 446.632 599.638 445.4 601.45C444.622 602.258 443.502 602.64 442.392 602.476C440.984 602.393 439.688 601.68 438.865 600.535C438.14 599.269 438.002 597.209 438.462 594.591C438.541 594.194 438.611 593.867 438.66 593.641C439.988 587.619 441.46 580.673 443.017 573.319Z" fill="black"/>
<path d="M518.461 565.489C520.341 573.949 522.891 585.185 524.231 591.925C524.331 592.445 524.451 593.065 524.611 593.735C524.926 595.655 525.694 597.472 526.851 599.035C528.617 600.95 531.595 601.088 533.531 599.345C535.181 597.505 534.611 593.375 534.451 592.145C534.421 591.915 534.391 591.685 534.361 591.445C533.231 582.295 531.881 570.425 530.581 559.445L518.461 565.489Z" fill="white"/>
<path fill-rule="evenodd" clip-rule="evenodd" d="M530.372 601.065H530.381C531.694 601.1 532.966 600.599 533.902 599.678C535.68 597.696 535.134 593.515 534.946 592.08L534.856 591.383C534.13 585.499 533.326 578.609 532.476 571.314C532.012 567.334 531.541 563.304 531.077 559.386L530.994 558.68L517.888 565.214L519.135 570.806C520.788 578.209 522.662 586.601 523.746 592.053L523.746 592.053C523.847 592.573 523.966 593.188 524.122 593.843C524.435 595.852 525.245 597.751 526.479 599.368C527.473 600.466 528.891 601.084 530.372 601.065ZM520.11 570.587L519.034 565.76L530.168 560.209C530.58 563.693 530.996 567.258 531.408 570.791L531.482 571.431C532.333 578.727 533.137 585.618 533.864 591.507L533.963 592.27C534.404 595.654 534.134 597.922 533.159 599.008C532.414 599.722 531.412 600.103 530.381 600.065H530.374C529.176 600.082 528.027 599.585 527.221 598.698C526.106 597.205 525.376 595.46 525.097 593.618C524.947 592.995 524.835 592.416 524.733 591.888L524.721 591.826C523.641 586.394 521.766 577.996 520.11 570.587Z" fill="black"/>
<path d="M491.961 571.566C493.551 579.156 495.011 584.656 496.201 590.656C496.411 591.706 496.871 594.046 497.491 596.326C497.877 598.051 498.517 599.709 499.391 601.246C501.081 603.666 503.711 603.286 505.411 602.226C507.331 601.036 507.331 598.006 507.101 595.916C507.021 595.086 506.901 594.416 506.861 594.056C505.971 586.876 505.051 578.956 504.011 570.016L491.961 571.566Z" fill="white"/>
<path fill-rule="evenodd" clip-rule="evenodd" d="M498.98 601.53C499.794 602.791 501.193 603.551 502.693 603.548C503.751 603.53 504.783 603.218 505.674 602.648C507.334 601.621 507.981 599.336 507.599 595.866C507.546 595.322 507.477 594.846 507.423 594.477C507.395 594.284 507.371 594.122 507.356 593.992C506.49 586.993 505.607 579.407 504.585 570.621L504.584 570.612L504.449 569.453L491.36 571.138L491.472 571.667C492.233 575.304 492.954 578.414 493.651 581.421C494.392 584.614 495.091 587.631 495.71 590.752L495.735 590.877C495.953 591.971 496.407 594.245 497.008 596.455C497.395 598.24 498.061 599.952 498.98 601.53ZM494.626 581.195C493.964 578.341 493.28 575.393 492.562 571.991L503.572 570.574L503.591 570.729L503.606 570.863C504.622 579.596 505.501 587.146 506.363 594.109C506.378 594.238 506.402 594.406 506.432 594.607L506.434 594.621C506.485 594.977 506.552 595.437 506.604 595.969C506.836 598.073 506.772 600.793 505.146 601.8C503.616 602.753 501.3 603.104 499.798 600.955C498.953 599.469 498.337 597.864 497.973 596.193C497.382 594.016 496.932 591.764 496.716 590.682L496.69 590.557C496.068 587.42 495.368 584.396 494.626 581.195Z" fill="black"/>
<path d="M433.194 148.071C434.083 144.982 437.251 141.67 439.633 139.511C440.645 140.223 441.997 140.217 443.002 139.495C443.848 138.665 444.178 137.442 443.864 136.299C443.499 135.136 442.679 134.17 441.592 133.619C440.46 132.987 439.067 133.053 438.001 133.791C436.514 134.884 436.631 136.568 437.883 137.875C435.222 141.438 430.49 143.077 426.05 142.832L430.039 146.617L433.194 148.071Z" fill="white"/>
<path fill-rule="evenodd" clip-rule="evenodd" d="M432.985 148.523C433.051 148.553 433.122 148.569 433.194 148.569L433.194 148.569C433.417 148.569 433.613 148.422 433.675 148.207C434.486 145.385 437.342 142.297 439.701 140.123C440.858 140.774 442.292 140.67 443.343 139.859C444.327 138.905 444.713 137.489 444.348 136.167C443.943 134.868 443.031 133.788 441.818 133.171C440.518 132.456 438.924 132.539 437.705 133.385C436.986 133.871 436.518 134.649 436.426 135.512C436.379 136.38 436.669 137.233 437.236 137.892C434.805 140.886 430.56 142.567 426.077 142.33C425.867 142.316 425.672 142.437 425.591 142.631C425.508 142.824 425.554 143.048 425.706 143.192L429.695 146.977C429.734 147.015 429.78 147.046 429.83 147.069L432.985 148.523ZM432.893 147.379L430.323 146.195L427.324 143.35C431.573 143.374 435.604 141.47 438.284 138.172C438.431 137.977 438.414 137.704 438.245 137.528C437.707 137.032 437.407 136.33 437.422 135.599C437.493 135.024 437.813 134.51 438.297 134.191C439.21 133.563 440.402 133.513 441.365 134.062C442.329 134.546 443.056 135.399 443.382 136.427C443.645 137.391 443.37 138.422 442.661 139.126C441.824 139.686 440.729 139.672 439.907 139.09C439.716 138.966 439.466 138.985 439.297 139.138C436.939 141.276 433.987 144.388 432.893 147.379Z" fill="black"/>
<path d="M446.621 145.423C443.826 146.996 441.261 148.948 438.999 151.222C437.332 153.262 436.902 156.045 437.877 158.492C438.534 160.893 440.616 162.631 443.095 162.849C445.539 162.909 447.964 162.414 450.188 161.401C457.158 158.492 460.542 161.289 461.454 164.813C462.57 169.13 460.318 173 456.611 173.608C452.302 174.314 451.027 172.333 446.621 170.233C443.122 168.565 438.528 168.766 437.858 172.228C433.33 205.239 438.543 328.484 438.824 359.893C438.928 371.633 439.061 383.562 442.467 394.798C446.805 409.11 455.801 420.712 466.134 431.618C482.636 448.249 513.684 460.997 528.708 478.974C539.155 491.475 543.226 500.488 545.261 516.48C548.173 539.355 540.028 559.512 514.298 567.456C493.203 573.969 473.728 571.821 454.829 568.816C441.53 566.701 431.203 559.318 422.853 548.754C411.132 533.925 410.722 508.023 412.489 493.872C415.549 469.357 417.083 453.14 420.144 428.624C423.859 405.005 423.603 380.962 423.239 357.055C422.804 328.384 426.398 209.816 422.328 178.999C421.2 172.101 420.065 171.333 412.421 168.193C411.069 167.575 410.335 166.094 410.663 164.644C410.835 164.022 411.09 161.603 408.654 161.398C408.035 161.358 407.424 161.56 406.951 161.96C406.482 162.494 406.185 163.157 406.099 163.862C405.837 165.165 402.556 162.061 401.591 161.165C396.906 156.81 393.534 150.875 395.856 144.576C396.765 142.188 398.37 140.128 400.462 138.66C406.08 134.647 413.304 135.127 419.248 137.843C423.132 139.673 426.599 142.279 429.438 145.5C431.6 147.83 435.038 148.457 437.883 147.039C440.193 145.929 442.346 144.519 444.288 142.845C444.153 142.554 444.057 142.246 444.003 141.93C443.894 140.85 444.384 139.796 445.281 139.184C446.767 138.033 448.887 138.211 450.16 139.594C450.922 140.227 451.385 141.15 451.437 142.14C451.488 143.13 451.123 144.096 450.431 144.804C449.331 145.604 447.917 145.834 446.621 145.423Z" fill="white"/>
<path fill-rule="evenodd" clip-rule="evenodd" d="M454.75 569.312C464.709 571.077 474.792 572.048 484.905 572.214C494.911 572.29 504.872 570.847 514.446 567.935C537.942 560.68 549.062 542.385 545.757 516.418C543.732 500.502 539.682 491.327 529.092 478.656C520.929 468.888 507.969 460.593 495.435 452.572L495.421 452.563C484.907 445.833 474.037 438.876 466.496 431.277C457.443 421.72 447.566 409.896 442.946 394.655C439.533 383.397 439.426 371.447 439.324 359.89C439.254 352.11 438.891 339.012 438.431 322.43L438.429 322.372L438.428 322.351C437.045 272.46 434.954 197.083 438.349 172.324C438.506 171.403 439.101 170.615 439.945 170.213C441.536 169.414 444.131 169.602 446.407 170.686C447.598 171.254 448.565 171.818 449.419 172.317L449.443 172.33C451.741 173.674 453.404 174.646 456.692 174.103C458.48 173.812 460.06 172.774 461.036 171.247C462.239 169.284 462.567 166.906 461.938 164.69C461.518 162.84 460.306 161.268 458.624 160.391C456.409 159.288 453.504 159.474 449.995 160.942C447.845 161.925 445.499 162.408 443.135 162.353C440.855 162.151 438.944 160.546 438.352 158.335C437.432 156.063 437.819 153.471 439.363 151.567C441.541 149.383 444 147.497 446.674 145.96C448.091 146.35 449.609 146.056 450.778 145.165C451.516 144.456 451.935 143.477 451.94 142.454C451.928 141.232 451.411 140.069 450.513 139.242C449.068 137.671 446.659 137.474 444.978 138.788C443.936 139.509 443.372 140.742 443.508 142.002C443.545 142.241 443.606 142.476 443.691 142.703C441.85 144.243 439.826 145.549 437.663 146.591C435.017 147.9 431.826 147.321 429.808 145.166C426.923 141.897 423.4 139.251 419.456 137.39C412.556 134.236 405.345 134.559 400.17 138.255C397.993 139.776 396.326 141.92 395.387 144.405C392.598 151.972 397.864 158.384 401.25 161.533L401.348 161.623C403.976 164.069 405.241 164.883 406.022 164.635C406.323 164.538 406.542 164.278 406.588 163.965C406.653 163.367 406.894 162.802 407.279 162.34C407.652 162.03 408.128 161.872 408.613 161.898C409.132 161.898 409.622 162.14 409.939 162.552C410.273 163.168 410.356 163.889 410.169 164.564C409.795 166.245 410.657 167.957 412.23 168.658C419.74 171.743 420.741 172.394 421.832 179.067C424.672 200.561 423.777 264.674 423.124 311.503L423.123 311.537C422.847 331.329 422.609 348.422 422.74 357.065C423.077 379.222 423.458 404.336 419.648 428.565C418.121 440.794 416.954 451.129 415.827 461.12L415.816 461.219C414.688 471.223 413.521 481.567 411.993 493.812C409.903 510.548 411.391 535.061 422.46 549.065C431.652 560.695 442.214 567.318 454.75 569.312ZM408.697 160.902C408.627 160.896 408.558 160.893 408.488 160.893V160.893C407.804 160.899 407.144 161.143 406.623 161.584C406.079 162.156 405.731 162.885 405.629 163.667C405.312 163.594 404.429 163.125 402.03 160.891L401.932 160.8C398.727 157.821 393.737 151.775 396.325 144.75C397.195 142.454 398.738 140.474 400.752 139.07C405.629 135.584 412.468 135.295 419.04 138.3C422.861 140.104 426.274 142.669 429.068 145.838C431.385 148.32 435.055 148.992 438.101 147.492C440.452 146.36 442.643 144.925 444.619 143.221L444.892 142.979L444.746 142.645C444.629 142.396 444.546 142.133 444.498 141.862C444.417 140.961 444.833 140.088 445.583 139.584C446.871 138.588 448.708 138.746 449.806 139.949C450.509 140.592 450.918 141.494 450.94 142.446C450.937 143.201 450.627 143.923 450.083 144.447C449.115 145.112 447.896 145.297 446.775 144.949L446.58 144.885L446.396 144.978C443.546 146.575 440.934 148.562 438.634 150.881C436.836 153.054 436.364 156.033 437.404 158.655C438.117 161.25 440.373 163.124 443.055 163.349C445.578 163.418 448.084 162.91 450.38 161.864C453.569 160.535 456.264 160.334 458.18 161.287C459.602 162.035 460.622 163.371 460.969 164.94C461.528 166.884 461.248 168.973 460.198 170.702C459.374 171.992 458.04 172.87 456.53 173.117C453.594 173.597 452.222 172.796 449.948 171.468L449.947 171.467L449.941 171.464C449.066 170.953 448.074 170.373 446.836 169.784C444.258 168.554 441.375 168.372 439.495 169.321C438.368 169.869 437.574 170.926 437.363 172.161C433.952 197.032 436.044 272.477 437.43 322.401L437.439 322.719C437.895 339.172 438.255 352.168 438.324 359.9C438.427 371.527 438.535 383.549 441.989 394.945C446.668 410.385 456.637 422.324 465.779 431.973C473.409 439.662 484.331 446.653 494.896 453.414L494.905 453.419C507.372 461.399 520.263 469.65 528.325 479.296C538.773 491.797 542.768 500.848 544.765 516.545C548.001 541.973 537.129 559.885 514.151 566.98C492.916 573.536 473.24 571.239 454.907 568.324C442.63 566.372 432.274 559.869 423.245 548.445C416.447 539.844 409.68 520.408 412.985 493.935C414.511 481.706 415.677 471.374 416.804 461.383L416.81 461.331C417.94 451.313 419.109 440.952 420.638 428.704C424.458 404.412 424.077 379.259 423.74 357.064L423.74 357.049C423.609 348.422 423.847 331.335 424.123 311.55L424.124 311.517C424.777 264.658 425.672 200.502 422.822 178.92C421.671 171.887 420.466 170.959 412.611 167.733C411.487 167.217 410.876 165.987 411.144 164.78C411.399 163.833 411.261 162.824 410.76 161.981C410.277 161.321 409.514 160.922 408.697 160.902Z" fill="black"/>
<path d="M395.103 149.77C398.433 151.504 402.522 150.677 404.917 147.785C407.478 144.55 407.109 139.887 404.071 137.094C404.071 137.094 399.905 138.436 397.896 141.055C396.039 143.577 395.058 146.638 395.103 149.77Z" fill="black"/>
<path d="M402.414 141.522C402.022 141.609 401.663 141.805 401.378 142.088C400.912 142.534 401.62 143.241 402.085 142.795C402.248 142.635 402.455 142.527 402.68 142.486C403.307 142.345 403.042 141.381 402.414 141.522H402.414Z" fill="white"/>
<circle cx="421.592" cy="148.309" r="1.5821" fill="black"/>
<path d="M532.639 483.961C550.43 484.79 565.891 496.447 571.582 513.324C571.779 513.934 572.745 513.673 572.546 513.058C566.726 495.754 550.876 483.8 532.639 482.961C531.995 482.939 531.996 483.939 532.639 483.961Z" fill="black"/>
<path d="M571.839 512.539C569.679 517.571 570.504 523.387 573.979 527.618C575.514 529.434 578.506 530.799 580.087 529.024C580.979 528.023 580.9 526.505 580.656 525.187C579.6 519.491 576.455 516.04 571.839 512.539" fill="black"/>
<path d="M436.236 205.599C438.185 205.041 440.274 205.773 441.449 207.425C442.449 209.027 442.113 211.122 440.662 212.331C439.308 213.176 437.644 213.362 436.137 212.838" fill="black"/>
<path d="M436.137 220.052C439.075 218.805 441.785 221.203 441.322 223.553C440.859 225.904 438.331 226.322 436.137 225.553" fill="black"/>
<path d="M436.308 233.046C438.969 232.294 442.424 234.202 442.424 237.514C442.424 240.593 439.483 242.035 436.176 241.582" fill="black"/>
<path d="M436.422 246.819C440.046 246.24 443.125 248.422 442.786 252.098C442.516 255.035 439.852 256.282 436.675 255.918" fill="black"/>
<path d="M436.689 260.926C441.098 259.844 444.839 264.481 441.87 267.862C440.611 268.924 438.055 269.182 436.689 269.115" fill="black"/>
<path d="M436.867 274.848C438.802 274.522 440.791 274.78 442.579 275.589C444.072 276.597 444.871 278.361 444.645 280.149C444.304 283.073 439.344 284.13 436.867 283.421" fill="black"/>
<path d="M437.421 289.635C438.943 289.492 441.958 289.243 443.582 290.699C445.454 292.299 445.807 295.058 444.399 297.079C443.015 298.866 439.661 299.743 437.421 299.216" fill="black"/>
<path d="M437.848 304.311C439.608 303.972 441.429 304.167 443.078 304.871C445.264 306.103 445.264 308.022 444.368 309.799C443.494 311.532 439.78 312.05 437.848 311.872" fill="black"/>
<path d="M437.848 318.427C439.437 318.427 441.953 318.018 443.694 319.211C445.511 320.63 445.968 323.188 444.754 325.148C443.47 327.053 440.278 327.168 438.509 327.017" fill="black"/>
<path d="M438.2 332.204C442.349 331.417 445.093 332.537 445.092 336.613C445.091 339.595 440.501 339.538 438.508 339.428" fill="black"/>
<path d="M457.651 473.849C455.933 473.259 454.944 469.983 454.403 468.51C453.667 466.507 452.938 464.508 453.868 462.422C455.203 459.72 456.813 457.163 458.672 454.791C461.688 450.668 463.575 455.666 464.552 458.062C465.401 460.131 466.106 462.257 466.662 464.424C466.995 465.732 467.928 468.329 467.172 469.619C466.483 470.795 464.1 471.617 462.939 472.154C461.42 472.859 459.271 474.025 457.518 473.832C456.879 473.761 456.884 474.762 457.518 474.832C459.07 475.003 460.78 474.166 462.169 473.583C464.069 472.925 465.85 471.964 467.444 470.738C469.697 468.687 467.539 463.592 466.784 461.271C466.031 458.959 464.149 451.419 460.833 451.695C458.484 451.89 456.575 456.013 455.523 457.665C454.18 459.775 452.245 462.203 452.382 464.856C452.632 466.805 453.216 468.697 454.107 470.449C454.772 471.976 455.659 474.221 457.385 474.814C457.995 475.023 458.257 474.058 457.651 473.849Z" fill="black"/>
<path d="M482.094 469.099C481.38 472.648 479.983 476.662 480.045 480.294C480.082 482.487 481.482 484.112 483.251 485.288C488.176 488.563 492.289 484.657 493.443 479.753C494.241 476.363 495.97 471.046 491.992 469.128C489.833 468.188 487.538 467.599 485.193 467.383C483.63 467.213 482.667 467.562 482.094 469.099C481.869 469.703 482.835 469.964 483.058 469.365C483.894 467.123 489.838 469.271 491.337 469.937C494.741 471.451 493.2 476.317 492.552 479.17C492.041 481.421 491.252 483.911 489.033 485.046C486.638 486.271 484.005 485.024 482.321 483.223C480.352 481.116 481.248 478.5 481.751 475.953C482.184 473.756 482.62 471.56 483.058 469.365C483.185 468.736 482.221 468.468 482.094 469.099Z" fill="black"/>
<path d="M427.874 500.841C429.601 503.999 431.123 508.015 433.512 510.719C434.965 512.363 437.089 512.687 439.198 512.438C444.692 511.789 445.727 506.582 443.651 502.173C442.271 499.243 439.958 493.537 435.864 494.333C433.741 494.919 431.722 495.831 429.879 497.037C428.302 497.941 427.218 498.776 427.824 500.721C428.014 501.334 428.98 501.072 428.788 500.456C428.038 498.046 434.449 495.566 436.13 495.297C439.232 494.803 441.194 499.561 442.36 501.825C443.307 503.665 444.191 505.751 443.653 507.87C442.963 510.59 440.25 511.607 437.723 511.509C434.832 511.397 433.704 509.36 432.437 507.062C431.202 504.821 429.969 502.579 428.738 500.336C428.429 499.771 427.565 500.275 427.874 500.841Z" fill="black"/>
<path d="M522.761 481.613C519.539 479.978 516.039 477.544 512.527 476.645C510.46 476.231 508.324 476.892 506.853 478.402C502.566 482.14 504.848 487.118 509.182 489.546C512.26 491.27 517.13 494.522 520.092 491.139C521.575 489.31 522.757 487.257 523.593 485.055C524.175 483.593 524.088 482.575 522.761 481.613C522.24 481.234 521.74 482.101 522.257 482.476C524.174 483.867 520.509 489.083 519.482 490.301C517.056 493.181 512.572 490.265 509.973 488.838C508.059 487.788 506.275 486.499 505.698 484.296C505.003 481.646 506.585 479.503 508.82 478.218C511.377 476.747 513.457 478.045 515.83 479.238C517.974 480.315 520.116 481.394 522.257 482.476C522.829 482.766 523.336 481.904 522.761 481.613Z" fill="black"/>
<path d="M437.434 437.126C440.97 436.477 445.274 436.294 448.58 434.86C450.746 433.921 451.747 431.714 452.065 429.465C452.829 424.06 447.894 421.96 443.288 422.616C439.863 423.104 434.039 423.454 433.71 427.882C433.668 430.132 433.943 432.376 434.529 434.548C434.898 436.15 435.519 437.185 437.301 437.143C437.57 437.134 437.784 436.913 437.784 436.643C437.784 436.374 437.57 436.153 437.301 436.143C434.804 436.201 434.518 429.658 434.71 427.882C435.07 424.561 439.911 424.172 442.574 423.734C444.724 423.382 447.108 423.117 449.051 424.368C451.413 425.889 451.512 428.775 450.616 431.149C449.568 433.923 447.302 434.273 444.714 434.757C442.199 435.227 439.684 435.695 437.168 436.161C436.536 436.277 436.803 437.241 437.434 437.126Z" fill="black"/>
<path d="M526.664 519.928C528.111 517.174 530.259 514.193 531.063 511.179C531.441 509.448 530.933 507.643 529.709 506.363C526.497 502.4 522.043 504.355 519.832 508.199C518.278 510.901 515.503 515.012 518.488 517.61C520.242 519.136 524.704 522.552 526.664 519.928C527.05 519.413 526.182 518.913 525.801 519.424C524.652 520.961 520.337 517.868 519.333 517.005C516.84 514.863 519.29 511.198 520.543 508.976C521.205 507.515 522.309 506.298 523.699 505.497C526.281 504.312 528.748 506.092 529.837 508.383C530.866 510.546 529.325 512.668 528.345 514.551C527.499 516.177 526.651 517.801 525.801 519.424C525.502 519.993 526.365 520.499 526.664 519.928Z" fill="black"/>
<path d="M488.163 509.73C487.048 506.875 489.273 505.224 491.477 503.954C493.299 502.905 495.293 501.569 497.39 501.19C503.356 500.11 503.296 508.899 503.226 512.647C503.221 514.868 502.98 517.081 502.506 519.251C502.226 520.437 501.863 521.939 500.724 522.619C498.677 523.842 496.642 521.569 495.448 520.338C492.457 517.168 489.982 513.548 488.113 509.61C487.827 509.034 486.964 509.54 487.249 510.115C488.699 513.167 490.5 516.039 492.615 518.674C494.207 520.594 496.307 523.474 498.969 523.893C504.871 524.823 504.282 513.348 504.218 510.075C504.133 505.695 502.663 498.92 496.817 500.299C493.932 501.104 491.25 502.51 488.946 504.424C487.139 505.912 486.319 507.744 487.199 509.996C487.43 510.589 488.398 510.331 488.163 509.73Z" fill="black"/>
<path d="M475.39 553.116C475.363 557.576 468.05 557.762 464.82 557.591C458.229 557.242 460.434 549.851 462.033 545.905C462.836 543.858 463.813 541.884 464.953 540.004C465.476 538.94 466.204 537.989 467.093 537.205C469.783 535.396 471.124 537.092 472.114 539.108C474.092 543.525 475.203 548.28 475.39 553.116C475.435 553.754 476.436 553.759 476.39 553.116C476.2 549.544 475.57 546.01 474.516 542.592C473.754 540.259 472.754 536.432 470.098 535.52C465.041 533.781 461.7 543.896 460.468 547.172C458.742 551.764 458.414 558.31 464.82 558.591C468.699 558.762 476.358 558.443 476.39 553.116C476.38 552.846 476.159 552.633 475.89 552.633C475.62 552.633 475.399 552.846 475.39 553.116Z" fill="black"/>
<path d="M488.831 537.965C488.37 543.21 487.185 549.434 491.137 553.647C492.927 555.555 496.007 558.162 498.632 558.606C501.093 559.022 501.583 556.616 502.081 554.75C503.504 549.417 504.659 542.713 499.665 538.964C497.333 537.213 489.692 532.31 488.849 537.832C488.753 538.461 489.717 538.733 489.814 538.098C490.494 533.637 498.496 539.061 500.14 540.649C503.752 544.137 502.189 550.588 501.02 554.844C500.95 555.4 500.793 555.942 500.554 556.449C499.664 557.436 498.182 557.615 497.083 556.868C496.131 556.326 495.216 555.722 494.343 555.061C492.13 553.443 490.257 551.607 489.647 548.83C488.879 545.326 489.521 541.492 489.831 537.965C489.888 537.324 488.887 537.328 488.831 537.965Z" fill="black"/>
<path d="M517.315 535.943C516.698 540.449 516.03 545.614 519.765 548.89C521.243 550.186 524.09 552.179 526.234 551.702C528.361 551.229 529.254 548.066 529.804 546.345C531.137 542.171 533.385 534.477 527.518 532.859C525.208 532.241 522.795 532.104 520.43 532.456C518.377 532.79 517.638 533.929 517.315 535.943C517.215 536.573 518.178 536.844 518.28 536.209C518.638 533.973 519.791 533.421 521.893 533.341C523.606 533.246 525.323 533.386 526.998 533.757C532.219 535.024 530.086 541.963 528.977 545.648C528.148 548.402 526.882 551.672 523.372 550.057C521.504 549.262 519.904 547.948 518.761 546.271C517.161 543.651 517.882 539.111 518.28 536.209C518.366 535.58 517.402 535.308 517.315 535.943Z" fill="black"/>
<path d="M429.167 542.724C429.152 540.018 429.36 537.315 429.789 534.643C429.966 533.568 430.186 532.5 430.425 531.438C430.73 530.083 430.771 528.737 432.039 528.081C433.845 527.146 437.035 527.962 438.879 528.632C441.575 529.612 442.694 531.656 443.701 534.171C444.433 536.002 445.148 537.857 445.696 539.751C445.985 540.736 446.215 541.737 446.385 542.748C446.586 543.963 446.653 545.548 445.4 546.354C444.951 546.643 443.655 546.452 443.09 546.462C440.8 546.528 438.509 546.375 436.249 546.003C434.355 545.665 429.698 544.83 429.149 542.591C428.996 541.967 428.031 542.231 428.185 542.857C428.749 545.159 431.93 545.944 433.923 546.497C437.211 547.313 440.602 547.633 443.985 547.447C446.465 547.377 447.757 546.474 447.554 543.863C447.302 540.613 446.042 537.439 444.871 534.434C444.008 532.219 443.167 529.961 441.093 528.606C438.587 527.18 435.716 526.525 432.84 526.722C430.067 526.873 429.874 529.264 429.37 531.574C428.568 535.236 428.164 538.975 428.167 542.724C428.176 542.994 428.397 543.208 428.667 543.208C428.937 543.208 429.158 542.994 429.167 542.724Z" fill="black"/>
<path d="M424.306 463.654C424.593 466.701 424.931 470.204 426.364 472.966C427.218 474.613 428.585 474.969 430.374 474.827C433.143 474.607 438.837 473.521 438.904 469.97C438.8 465.554 437.374 461.271 434.81 457.674C433.798 456.398 432.856 456.406 431.477 457.231C429.709 458.421 428.004 459.701 426.368 461.066C425.284 461.88 424.382 462.26 424.306 463.654C424.271 464.297 425.271 464.295 425.306 463.654C425.37 462.479 427.874 461.178 428.697 460.56C429.723 459.65 430.821 458.825 431.982 458.095C433.823 457.16 434.32 458.578 435.061 460.057C436.606 462.957 437.564 466.134 437.881 469.405C438.115 470.514 437.487 471.624 436.415 471.993C434.816 472.817 433.1 473.391 431.328 473.695C430.339 473.96 429.297 473.947 428.316 473.655C427.492 473.084 426.926 472.211 426.741 471.225C425.967 468.766 425.486 466.225 425.306 463.654C425.247 463.019 424.246 463.012 424.306 463.654Z" fill="black"/>
<path d="M455.387 505.508C455.613 508.655 456.184 511.767 457.09 514.789C457.564 516.258 458.133 518.086 459.649 518.767C462.979 520.262 468.753 518.03 471.572 516.168C474.046 514.534 472.894 510.842 472.289 508.457C471.433 505.081 470.192 500.322 467.641 497.759C465.848 495.958 463.872 497.921 462.284 499.113C460.456 500.486 458.628 501.858 456.8 503.23C455.878 503.923 455.381 504.317 455.387 505.508C455.397 505.778 455.618 505.991 455.887 505.991C456.157 505.991 456.378 505.778 456.387 505.508C456.38 503.984 459.888 502.154 460.96 501.349C462.308 500.337 463.856 498.728 465.513 498.312C466.742 498.004 466.831 498.23 467.532 499.254C467.993 499.96 468.399 500.7 468.746 501.467C470.368 504.865 471.929 509.037 472.025 512.848C472.069 514.573 471.492 515.146 469.985 515.901C467.942 516.928 465.75 517.63 463.49 517.98C462.354 518.255 461.163 518.205 460.054 517.835C458.956 517.3 458.525 515.915 458.153 514.833C457.196 511.806 456.604 508.676 456.387 505.508C456.329 504.873 455.328 504.867 455.387 505.508Z" fill="black"/>
<path d="M411.731 588.883C414.931 590.046 418.205 590.995 421.531 591.723C421.08 593.525 420.351 595.245 419.371 596.823C418.411 597.953 416.984 598.578 415.503 598.515C414.021 598.453 412.652 597.71 411.791 596.503C410.621 594.643 411.261 590.993 411.731 588.883Z" fill="black"/>
<path d="M448.3 596.335C447.826 598.295 446.969 600.141 445.781 601.769C443.871 604.019 439.611 602.859 438.431 600.779C437.371 598.929 437.781 595.65 438.071 594C441.436 594.961 444.851 595.741 448.3 596.335Z" fill="black"/>
<path d="M507.015 595.164C507.431 597.65 507.331 601.033 505.411 602.223C503.711 603.283 501.081 603.663 499.391 601.243C498.517 599.706 497.877 598.048 497.491 596.323C499.583 596.179 504.015 595.47 507.015 595.164Z" fill="black"/>
<path d="M533.531 599.339C531.581 601.042 528.636 600.905 526.851 599.03C525.681 597.74 524.935 595.197 524.525 593.357C527.856 593.072 531.162 592.55 534.419 591.797C534.449 592.037 535.497 597.404 533.531 599.339Z" fill="black"/>
</svg>
